<svg xmlns="http://www.w3.org/2000/svg"  viewBox="15 20 124 94" 
>
  <path d="M43.525 10.003c-1.334.031-2.644.357-3.215.853-.156.136-.507.248-.78.248-.647 0-2.224.794-2.69 1.356-.203.244-.55.443-.77.443-.699 0-3.273 2.796-4.01 4.353-.39.824-.906 1.73-1.148 2.012-.242.283-.359.721-.262.975.097.253.067.46-.066.46-.85 0-1.152 4.21-.47 6.526.165.555.083.674-.456.674-.718 0-3.11 1.518-4.063 2.576-.963 1.071-1.65 2.028-1.65 2.299 0 .275-.14.465-1.494 2.02-.5.573-1.13 1.619-1.399 2.324-.269.705-.605 1.281-.748 1.281-.458 0-.276 1.44.248 1.965.477.477.542.469 1.051-.16.298-.369.541-.582.541-.475 0 .107.18.028.399-.176.218-.204.342-.657.275-1.006-.188-.985 2.68-5.546 3.488-5.546.622 0 .522.434-.28 1.218-.485.473-.882.94-.882 1.035 0 .096.35.499.778.895.61.566.888.653 1.289.402.28-.175.53-.57.552-.877.024-.307.322-.857.662-1.222.87-.934.81-1.94-.13-2.176-.413-.104-.75-.405-.75-.67 0-.377.198-.441.91-.299.5.1 1.459-.006 2.127-.236 1.128-.389 1.258-.374 1.824.191.496.496.533.66.2.883-.273.182-.14.211.392.088.647-.15.787-.086.726.332-.042.285-.327.701-.634.926-.497.363-.505.408-.053.408.279 0 .508-.125.508-.28 0-.153.273-.365.605-.47.332-.106.544-.29.47-.408-.073-.119.33-.162.895-.096.66.077 1.03.282 1.03.57 0 .252.176.381.4.295.22-.084.4.018.4.227 0 .227-.251.328-.625.25-.62-.13-.622-.13-.027.351.507.41.532.526.16.756-.242.15-.345.368-.23.483.115.115.412.039.662-.168.626-.52 1.558-.159 1.08.418-.227.272-.244.484-.049.605.405.25 1.828-.125 1.828-.482 0-.157.136-.2.303-.098.167.103.659-.093 1.092-.433 1.019-.802 1.401-.78 2.385.13 1.08 1.003 2.459.992 3.6-.029l.87-.781-.898.195c-.495.107-1.184.267-1.53.356-.366.094-.828-.04-1.113-.325-.657-.656-2.607-1.458-2.607-1.07 0 .167-.204.305-.451.305-.248 0-.45.143-.45.318 0 .175-.135.233-.3.131-.165-.102-.3-.049-.3.117 0 .61-1.86-.352-2.401-1.242-.3-.493-1.065-1.13-1.698-1.414-.633-.284-1.733-1.04-2.443-1.678-.998-.897-1.252-1.312-1.123-1.826.092-.366.036-1.008-.123-1.426-.197-.518-.184-.823.039-.96.213-.133.151-.301-.178-.485-.322-.18-.637-.173-.873.023-.438.364-1.263-.05-.988-.496.104-.168.48-.23.836-.136.443.115.578.06.431-.178-.118-.191-.556-.348-.972-.348-.475 0-.708-.14-.627-.375.075-.218.51-.339 1.037-.287.766.075.931-.029 1.055-.674.112-.587.021-.763-.39-.763a3.37 3.37 0 01-1.007-.184c-.87-.334-.488-.656.723-.611 1.26.046 1.406-.094 1.373-1.307-.011-.413.16-.94.38-1.172.337-.355.326-.466-.074-.69-.262-.146-.476-.46-.476-.697 0-.35.138-.363.76-.08 1.035.472 1.872-.264 1.369-1.205-.181-.338-.33-.76-.33-.935 0-.487.813-.381 1.01.13.255.667 1.065.57.888-.105-.08-.305.085-.784.363-1.062.465-.465.568-.468 1.227-.036.684.448.733.435.992-.248.296-.779 1.096-1.243 1.371-.797.095.153.572.198 1.06.1.526-.105.89-.05.89.133 0 .17.27.239.6.152.416-.109.599-.009.599.328 0 .523.458.656.732.213.193-.312 1.367-.077 1.367.274 0 .127.478.287 1.06.355.763.09 1.02.018.917-.252-.156-.407.94-.889 1.271-.558.111.11-.068.411-.398.666-.592.457-.591.46.057.308.416-.098.718.01.828.297.114.298.432.401.937.305.544-.104.72-.035.613.244-.1.261.088.372.567.336.394-.03.749.081.787.246.038.165.236.467.44.67.203.203.422.527.486.719.064.192.513.375 1 .408 1.567.105 1.636.143 1.636.892 0 .605-.223.805-1.24 1.11-1.317.394-2.06 1.508-2.06 3.092 0 .61.147.76.75.76.412 0 .804-.034.869-.075.065-.041.403.182.75.496.433.392.63.933.63 1.725 0 1.225.136 1.316 1.296.875 1.364-.519 1.695-3.837.568-5.69-.476-.781-.577-1.385-.492-2.9.11-1.976-.106-2.447-1.979-4.324-.659-.66-3.645-2.108-4.35-2.108-.329 0-.766-.27-.972-.6-.206-.33-.684-.599-1.062-.599-.379 0-.84-.153-1.028-.34-.187-.187-.585-.363-.885-.392a86.27 86.27 0 01-2.3-.3c-.424-.058-.87-.08-1.315-.07zm2.7 1.757c.084-.005.12.104.163.325.052.268-.055.764-.236 1.103-.181.339-.458.615-.617.615-.482 0-.326-1.121.234-1.681.237-.237.37-.357.455-.362zm-1.927.621c.185-.026.346.083.346.348a.476.476 0 01-.474.475c-.262 0-.42-.16-.356-.356.093-.278.3-.44.484-.467zm3.176.077a.648.648 0 01.328.04c.242.093.365.289.274.436-.195.315-.551.35-.822.078-.24-.24-.075-.51.22-.554zm-.279 1.047a.45.45 0 11-.002.9.45.45 0 01.002-.9zm5.1.898c.247 0 .449.136.449.3 0 .166-.202.302-.45.302-.247 0-.449-.136-.449-.301 0-.165.202-.301.45-.301zm-1.764.117a.217.217 0 01.12.037c.166.104.225.313.13.467-.257.416-.436.34-.436-.187 0-.193.077-.313.186-.317zm-6.32 1.852c-.104-.003-.232.172-.325.467-.123.393-.544 1.013-.933 1.376-.39.364-.71.734-.71.825 0 .412.635.083 1.557-.81.841-.815 1.235-.975 2.393-.975.9 0 1.592.184 1.969.525.96.869 1.158.59.252-.356-.754-.786-1.007-.869-2.381-.779-.848.056-1.625-.04-1.73-.21-.027-.043-.058-.063-.092-.063zm-3.868.133c-.51 0-1.138 1.345-.908 1.945.096.25.463.451.817.45.473-.004.535-.073.236-.263-.312-.197-.328-.4-.074-.875.441-.825.418-1.257-.07-1.257zm5.881 2.246a2.03 2.03 0 00-.351.058c-1.003.263-1.339 2.348-.528 3.274.484.55 2.158.52 2.729-.051 1.238-1.238-.122-3.42-1.85-3.281zm-13.568.025c.155.036.289.194.289.445 0 .156-.2.284-.441.284-.269 0-.373-.177-.268-.45.088-.23.265-.315.42-.279zm6.242.193c-.063-.013-.117-.002-.156.037-.084.084-.046.466.084.85.13.384.2.885.154 1.115-.045.23.098.533.317.672.738.468 1.08.268 1.011-.592-.056-.713-.97-1.987-1.41-2.082zm-4.215 1.498c-.281.033-.319.578-.056 1.262.199.518 1.017.66 1.017.176 0-.165-.14-.3-.312-.3s-.274-.223-.225-.495c.049-.272-.08-.553-.287-.625a.309.309 0 00-.137-.018zm5.112 1.916c-.193-.016-.406.14-.475.346-.073.22.133.375.5.375.425 0 .625.192.625.6 0 .637.221.735.812.36.531-.338.116-1.551-.548-1.604-.311-.025-.722-.06-.914-.077zm-5.13.159c-.057.002-.152.078-.296.224-.301.306-.235.495.334.96.796.65 1.122.714 1.392.277.102-.166-.16-.432-.582-.592-.422-.16-.77-.458-.77-.66 0-.142-.02-.211-.077-.21zm-3.07.261c.248 0 .45.136.45.301 0 .165-.202.299-.45.299-.247 0-.45-.134-.45-.299 0-.165.203-.3.45-.3zm37.387 1.38c-2.117-.075-4.993.112-5.877.456-.501.195-1.25.666-1.662 1.045-.412.38-1.064.978-1.45 1.33-.757.694-.666 1.226.102.588.445-.369.802-.44 3.588-.717.655-.065 1.242-.277 1.307-.472.118-.354-.74-.293-2.272.162-.498.148-.675.077-.675-.272 0-.31.383-.537 1.125-.662a22.45 22.45 0 001.672-.34c.375-.103.596.046.709.477.102.391.405.626.804.623.512-.004.552-.062.2-.285-.67-.423-.224-.648 1.472-.744 1.822-.104 3.353.163 3.332.582-.008.165-.142.3-.299.3-.156 0-.461.18-.676.397-.322.327-.245.362.436.193.629-.155.824-.095.824.254 0 .252.072.64.157.862.093.244-.264.628-.903.972-1.414.762-1.072 1.008.447.323 1.29-.582 1.824-.453 1.206.293-.48.578-.04.577.726-.002.32-.243.827-.442 1.125-.442.298 0 .543-.106.543-.238s-.491-.184-1.092-.113c-1.04.12-1.084.092-.902-.631.163-.651.105-.738-.408-.604-.33.086-.598.015-.598-.16 0-.702 1.67-1.12 1.916-.48.09.235 0 .43-.201.431-.232.003-.2.111.084.295.677.437 1.205.36 1.01-.148-.122-.317.024-.452.496-.452.541 0 .6.081.316.424-.398.48-.121.74.654.616.473-.077.661.202.561.835-.02.124.234.225.564.225.666 0 .81.46.225.715-.206.09-.004.084.45-.01.613-.127.825-.053.825.287 0 .252-.168.538-.375.635-.206.097-.004.127.45.066.897-.119 1.098.225.369.633-.358.2-.181.41.824.963.705.388 1.342.756 1.416.818.074.063.16 1.087.191 2.278.031 1.19.258 2.928.504 3.861.669 2.528.16 7.65-1.045 10.51-.545 1.296-.644 1.381-1.279 1.092-.56-.255-.863-.186-1.613.369-.848.626-1.027.652-2.162.312-1.525-.456-1.764-.264-.989.8.33.45.688 1.058.795 1.347.213.571.967.705 1.264.224.102-.165.042-.3-.133-.3-.174 0-.316-.202-.316-.45 0-.272.278-.449.703-.449.387 0 .947-.271 1.246-.601.492-.544 1.65-.845 1.65-.43 0 .343-.663 1.392-1.25 1.979-.584.585-.595 1.1-.058 2.5.152.395.045.481-.496.402-.84-.123-1.172.563-.34.701.562.093.569.163.15 1.45-.241.742-.625 1.754-.853 2.25a15.071 15.071 0 00-.582 1.447c-.135.436-.355.508-1.07.351-.567-.124-.901-.077-.901.127 0 .178.338.324.75.324.423 0 .75.173.75.397 0 .645-1.496 1.862-2.158 1.754-.401-.066-.56.035-.47.298.075.222.44.355.823.3.54-.08.649.008.498.4-.106.275-.193.62-.193.767 0 .148-.429.49-.955.762-.738.382-1.08.418-1.496.158-.661-.413-1.149-.433-1.149-.049 0 .159.54.451 1.2.649.83.248 1.2.528 1.2.906 0 .706-1.301 1.045-2.286.596-.894-.408-1.313-.43-1.313-.07 0 .147.54.481 1.2.746 1.26.504 1.446.967.824 2.039-1.003 1.725-2.865 2.565-4.418 1.99-.684-.253-.687-.268-.127-.82.517-.51.636-.521 1.277-.116.512.324.798.357 1.035.12.237-.238.186-.327-.185-.327-.282 0-.743-.271-1.026-.601-.542-.634-1.281-.805-1.281-.3 0 .166-.192.3-.428.3-.235 0-.652.225-.925.498-.587.587-2.863.773-4.272.35-.652-.197-1.036-.534-1.158-1.02-.1-.4-.385-.727-.633-.727-.352 0-.407.228-.256 1.033.158.841.084 1.093-.396 1.35-.325.174-.737.316-.912.316-.515 0-.367-.843.203-1.162.287-.16.427-.388.31-.506-.117-.117-.558.012-.978.288-.685.448-.894.455-2.033.07-.86-.29-1.446-.338-1.807-.145-.7.374-2.398-.23-2.899-1.03-.358-.575-.321-.59.93-.372 1.385.242 3.498.228 3.908-.025.623-.385.179-.75-.681-.56-2.015.442-4.473-.398-4.473-1.528 0-.6.714-.535 1.87.17.999.61 2.03.794 2.03.363 0-.13-.574-.446-1.275-.7-.777-.28-1.51-.82-1.875-1.382-.33-.507-1.005-1.104-1.5-1.326-.495-.223-.832-.54-.75-.705.083-.165.286-.255.451-.2.661.22.832.183.977-.216.088-.242.017-.335-.168-.221-.353.218-1.953-1.12-1.674-1.398.172-.172-.086-.554-1.186-1.76-.684-.752-.513-.958.48-.58.495.187.833.604.96 1.18.137.622.426.947.963 1.081 1.048.264 1.249-.035.31-.462-.477-.218-.703-.512-.6-.782.1-.258-.242-.781-.847-1.299l-1.016-.869.825-.011c.887-.014 1.036-.282.47-.848-.635-.635.037-.785 1.147-.256 1.05.501 1.907.406 1.006-.111-.985-.566-1.435-1.086-1.617-1.873-.2-.855.204-1.13.63-.432.27.443 1.605 1.408 1.948 1.408.456 0-.135-.884-.713-1.068-.542-.172-1.446-1.75-1.446-2.524 0-.676.639-.251 1.112.74.296.621.718 1.051 1.035 1.051.484 0 .47-.096-.149-1.007-1.089-1.606-.783-5.293.44-5.293.145 0 .262.263.262.586 0 .878.643 2.115 1.1 2.115.519 0 .507-.285-.034-.883-.238-.264-.467-1.05-.508-1.748-.04-.698-.202-1.27-.36-1.27-.156 0 .084-.343.536-.761.452-.419.751-.946.664-1.172-.101-.264.13-.48.647-.6 1.55-.362 2.415-.822 2.267-1.209-.081-.212-.375-.367-.654-.345-.319.024-.508-.184-.508-.559 0-.803.88-.928 1.225-.174.187.41.407.524.681.352.322-.202.231-.516-.44-1.53-.65-.983-.863-1.69-.925-3.087-.045-1.01.068-1.993.252-2.215.253-.305.215-.399-.156-.399-.66 0-.614-.51.078-.88.617-.33 1.048-1.865.601-2.141-.153-.095-.005-.487.329-.871.671-.775.774-1.21.285-1.21-.177 0-.11-.21.15-.47.431-.429.431-.514 0-.945-.432-.432-.378-.508.621-.852 1.198-.412 1.922-.936.828-.6-.838.258-.856.06-.06-.681.58-.54.585-.586.076-.781-.381-.147-.768.048-1.316.662-1.101 1.232-2.754 5.34-2.864 7.119-.05.825-.181 1.837-.29 2.25-.177.663-.247.576-.604-.75-.222-.825-.41-1.797-.41-2.158-.007-.815-.58-1.213-.944-.657-.309.474-.11 2.028.477 3.737.223.646.323 1.308.223 1.468-.096.161-.142.818-.096 1.461.113 1.564-1.384 7.513-2.098 8.336-.312.36-.568.791-.568.96 0 .167-.182.518-.405.779-.222.26-.58 1.15-.796 1.974-.217.825-.626 2.04-.91 2.7-.285.66-.683 2.01-.885 3-.203.99-.57 2.028-.817 2.306-.245.278-.348.664-.228.858.12.193.092.44-.06.544-.153.106-.732 1.136-1.288 2.291s-1.426 2.547-1.935 3.094c-.855.918-.885 1.02-.385 1.301.428.24.466.394.187.73-.48.58-.877.535-.888-.1-.01-.473-.046-.478-.375-.048-.201.262-.537.419-.748.348-.211-.071-1.038.027-1.836.218-1.197.288-1.644.268-2.541-.107-1.33-.555-1.456-.089-.159.582l.932.48-.648.456c-.651.456-2.365.432-3.846-.053-.538-.177-.643-.128-.502.238.254.661 2.16 1.051 3.508.717.618-.154 1.125-.402 1.125-.555 0-.152.457-.192 1.015-.088.612.115 1.095.06 1.217-.136.113-.183-.005-.327-.265-.327-.508 0-.66-.575-.168-.636.596-.075.756-.127 1.125-.362.414-.263.976-.023.976.416 0 .156-.304.286-.676.288-.512.003-.572.068-.252.271.359.227.345.43-.09 1.346-.42.886-.672 1.078-1.417 1.078-.77 0-.877-.09-.715-.6.193-.608-.264-.845-.596-.308-.1.16-.722.437-1.383.615-1.58.425-2.37 1.139-2.37 2.137 0 .856-.506 1.126-1.7.912-.62-.112-1.132-1.103-.826-1.598.08-.13.445-.124.81.014.522.196.835.075 1.461-.565.496-.506.709-.955.563-1.191-.166-.269-.294-.284-.44-.049-.246.399-2.243.434-2.85.05-.355-.224-.362-.354-.04-.741.45-.542.304-.624-1.592-.889-1.445-.202-3.145-1.316-3.377-2.213-.122-.47-.4-.674-.912-.674-.406 0-1-.14-1.319-.31-.319-.171-.58-.199-.58-.06 0 .421.691.97 1.223.97.553 0 1.366.811 1.09 1.088-.095.095-.86-.055-1.701-.334l-1.528-.508.198-1.098c.278-1.542.382-1.641 1.185-1.115.392.257 1.022.455 1.399.441.593-.02.554-.082-.29-.45-.536-.235-.976-.571-.976-.749 0-.203-.333-.249-.898-.125-.704.155-.9.093-.9-.277 0-.26.168-.478.374-.483.215-.005.13-.194-.197-.44-.544-.412-.545-.445-.031-.642.326-.125.67-.037.87.221.183.235.703.667 1.157.957 1.316.842 1.01-.097-.344-1.055-.636-.45-1.23-1.091-1.316-1.425-.197-.753.371-.798 1.047-.082.896.95 1.475 1.34 1.681 1.132.112-.111-.403-.766-1.144-1.455-1.21-1.123-2.38-3.2-1.8-3.2.124 0 .306-.406.405-.901.24-1.202.633-1.135 1.297.224.438.896.699 1.108 1.28 1.043.474-.052 1.05.228 1.648.801 1.015.973 1.987 1.287 2.19.707.075-.215-.114-.375-.442-.375-.629 0-1.665-1.01-2.004-1.95-.203-.566-.238-.57-.601-.075-.5.679-.985.667-1.206-.027-.096-.304-.565-.99-1.042-1.524-.8-.895-.838-1.035-.467-1.773.22-.441.774-2.017 1.226-3.502.453-1.485.931-2.773 1.065-2.864.403-.273 1.442-3.586 1.125-3.586-.162 0-.625.218-1.03.483-.677.443-.752.443-.923-.004-.103-.267-.042-.66.134-.873.177-.213.242-.691.145-1.063-.224-.855-1.4-.772-1.533.108-.05.33-.344 1.207-.655 1.95-.31.742-.811 1.99-1.113 2.773-.301.783-.711 1.425-.912 1.425-.2 0-.762.388-1.246.862l-.88.86-.39-.726-.388-.726-.508.982c-.436.844-.51 2.044-.525 8.49-.013 5.438.1 8.089.414 9.61.429 2.08 1.069 3.016 1.853 2.715.213-.082.385.066.385.332 0 .388-.221.443-1.16.293-.638-.102-2.718-.27-4.621-.373-3.315-.18-3.476-.161-3.801.447-.39.728-.34.739 2.982.63a73.305 73.305 0 012.399-.05l2.101.064c.908.03 3.336.036 5.399.014 3.336-.035 5.752.23 6.2.678.086.084.071.42-.032.746-.2.628-1.47 1.11-2.024.768-.181-.113-3.953-.221-8.38-.243-6.798-.033-8.076.03-8.217.399-.384.998.552 1.27 4.42 1.293l3.751.023.026 2.297c.015 1.264.161 2.89.324 3.615.163.725.223 1.437.133 1.582-.09.146-.14 1.099-.111 2.118.11 3.975.048 5.011-.575 9.652-.354 2.64-.713 6.568-.8 8.73-.136 3.386-.09 4 .335 4.424l-.006.002c.35.35.645.41 1.014.213.316-.169.69-.17.953-.004.239.151.598.277.797.28.605.007 1.811-1.507 2.361-2.967.286-.758.836-1.76 1.223-2.227.387-.466.703-1.04.703-1.275 0-.235.119-.426.264-.426.331 0 3.118-5.44 3.611-7.051.44-1.434.812-2.252 1.846-4.05.427-.744.87-1.724.984-2.177.132-.525.407-.822.76-.822.532 0 2.135-1.95 2.135-2.595 0-.173.271-.626.601-1.006.33-.38.6-.852.6-1.05 0-.196.27-.67.6-1.05.33-.38.6-.873.6-1.096 0-.222.117-.404.259-.404.143 0 .492-.607.775-1.35.284-.742.628-1.35.766-1.35s.339-.395.445-.88l.194-.883 2.45.143c1.35.078 2.585.275 2.745.435.306.306-.581 6.28-.977 6.578-.64.484.106 2.192.91 2.086.815-.107 1.106.039.94.471-.095.248-.364.451-.598.451-.649 0-.94 1.117-1.123 4.309-.152 2.66-.113 2.965.45 3.527.593.594.6.682.156 2.465-.5 2.013-1.327 6.587-1.365 7.549-.13 3.3-.04 3.75.74 3.75.238 0 .433-.27.433-.6 0-.35.199-.601.48-.601.328 0 .422.162.292.502-.213.554.279.987 1.129.994.572.005 1.672-1.091 1.69-1.684.005-.186.198-.495.429-.687.231-.192.508-.7.615-1.127.107-.428.898-2.25 1.756-4.051 1.23-2.585 1.669-3.248 2.08-3.14.29.074.781-.152 1.108-.51.322-.356 1.053-1.156 1.62-1.778.569-.622 1.21-1.566 1.424-2.1.216-.532.568-1.076.784-1.208.216-.132.392-.426.392-.653 0-.226.32-.793.71-1.26a11.78 11.78 0 001.195-1.8c.287-.56.77-.998 1.168-1.059.373-.057.644-.268.603-.47-.041-.203.044-.368.19-.368.145 0 .638-.778 1.097-1.726.713-1.474 2.281-3.669 3.66-5.121.207-.218.377-.589.377-.825 0-.235.126-.43.28-.43.153 0 .368-.273.474-.609.17-.532.372-.59 1.596-.45.772.087 1.842.287 2.377.44.535.154.974.177.974.051 0-.125 2.87-.18 6.375-.12 3.507.058 6.51.097 6.674.087.165-.01 1.644-.046 3.287-.082l2.989-.066.193.9c.107.495.552 1.563.988 2.371.437.808.793 1.668.793 1.912 0 .775 1.824 3.665 2.348 3.719.277.029 1.004.07 1.617.09 1.01.032 1.1-.03.95-.633-.142-.563-.07-.64.468-.5.35.092.773.424.941.738.352.657.877.469.877-.314 0-.292-.328-1.177-.728-1.967-.4-.79-.656-1.623-.568-1.852.087-.228.018-.414-.155-.414-.463 0-.178-1.072.453-1.703.3-.3.716-.53.922-.51.206.021.511.056.676.077.564.07.3.65-.451.992-.413.188-.75.459-.75.601 0 .39 1.892-.663 2.346-1.306.217-.308.503-.494.634-.412.132.081.494-.142.805-.496.556-.633.555-.641-.035-.418-1.22.46-1.592.443-1.492-.073.053-.276.106-.593.119-.705.02-.176.605-.221 3.098-.242 1.563-.013 1.812.63.56 1.447-.42.275-1.173.868-1.674 1.319-1.517 1.366-1.89 1.67-2.691 2.195-.424.278-.77.625-.77.773 0 .39 2.281-1.176 3.88-2.664.753-.7 1.597-1.275 1.876-1.275.934 0 .927.654-.014 1.457-2.041 1.742-4.906 4.578-4.765 4.719.322.322 6.523-5.323 6.523-5.938 0-.13.204-.238.451-.238a.45.45 0 00.45-.45c0-.505-.531-.58-1.186-.165-.626.396-.966.074-.615-.582.244-.457.176-.6-.37-.774l-.67-.213.69-.255c.38-.14.605-.39.502-.557-.103-.166-.044-.303.131-.303s.303-.1.283-.224c-.087-.55.058-.977.334-.977.165 0 .31.237.32.525.017.418.087.387.346-.15.337-.698.527-.776 1.643-.687.362.028.971-.12 1.351-.329.38-.21.927-.345 1.215-.3.352.053.526-.119.526-.522 0-.755-.48-1.082-.71-.484a.753.753 0 01-.652.447c-.352 0-.428-.177-.29-.674.175-.635.143-.627-.55.131-.775.849-1.097.812-1.097-.12 0-.465-.073-.493-.42-.173-.23.213-.363.478-.295.59.067.112-.152.29-.486.396-.335.107-.541.304-.457.44.193.313-1.267.693-1.68.437-.186-.115-.053-.428.334-.789.353-.329.555-.686.447-.793-.107-.107-.502.16-.877.596-.374.435-.961.941-1.304 1.125-.752.402-1.864.44-1.864.063 0-.15-.255-.205-.566-.124-.698.183-1.151-.44-.502-.689.258-.099.469-.3.469-.447 0-.403-.64-.323-1.176.148-.596.525-2.424.934-2.424.543 0-.158.29-.478.643-.713.582-.386.446-.421-1.463-.369-1.158.032-2.359.138-2.668.235-.31.096-.76.05-1.002-.102-.35-.22-.264-.342.424-.604.618-.234.772-.42.54-.652-.23-.231-.52-.186-1.015.16-.888.623-3.26.662-3.26.055 0-.279.303-.42.858-.404 1.121.032 1.709-.32 1.27-.76-.236-.235-.427-.224-.686.035-.43.43-2.309.47-2.942.06-.366-.236-.327-.292.207-.296.362-.003.742-.14.844-.305.114-.184-.374-.303-1.258-.309-1.555-.01-2.985-.72-2.119-1.052.256-.099.702-.137.99-.084.289.052.58-.065.649-.26.078-.223-.193-.345-.73-.33-1.015.029-2.11-.509-2.82-1.383-.28-.347-.613-.528-.74-.402-.285.284.656 2.32 1.073 2.32.168 0 .305.243.305.541 0 .298.463.99 1.029 1.54.818.792 1.185.956 1.799.802.913-.23 1.106.524.248.97-.574.3-13.437.286-13.737-.013-.101-.102-.58-.07-1.066.068-.983.282-2.895.063-3.158-.363-.094-.152.213-.653.682-1.113 1.739-1.706 2.673-2.975 3.464-4.705 1.67-3.653 2.62-6.054 2.918-7.381.169-.752.449-1.742.623-2.201.175-.46.375-1.821.446-3.026.07-1.205.267-2.432.437-2.728.17-.297.783-2.173 1.362-4.168.943-3.251 1.052-4 1.052-7.227 0-2.259-.16-4.132-.43-5.027-.236-.785-.36-1.603-.277-1.819.083-.215-.13-1.004-.47-1.753-.342-.75-.622-1.477-.622-1.616 0-.31-1.07-1.72-2.175-2.869-.454-.472-.825-.972-.825-1.111 0-.14-.405-.343-.9-.451-.495-.11-.9-.328-.9-.489 0-.16-.406-.433-.9-.605-.496-.173-.9-.417-.9-.543 0-.258-2.452-1.06-4.5-1.469-.434-.087-1.055-.14-1.76-.166zm-26.762.034c-.296.033-.562.352-.57.772-.002.13.283.081.635-.108.502-.268.552-.396.232-.593a.46.46 0 00-.297-.07zm-6.814.594c-.553.023-.746.21-.453.502.288.289 1.832.23 2.021-.076.091-.147-.314-.324-.9-.393a4.34 4.34 0 00-.668-.033zm18.37.408c-.444-.02-.78.29-1.003.93-.454 1.304-.413 1.688.195 1.848h.002c1.066.278 1.258.183 1.764-.883.496-1.045.494-1.107-.043-1.5-.343-.251-.65-.382-.916-.395zm-8.663.286c-.502 0-.84.427-.56.707.358.358.992.194.992-.258a.441.441 0 00-.432-.45zm24.512.5a1.64 1.64 0 00-.53.025c-.412.079-.75.196-.75.26 0 .063.338.115.75.115.413 0 .75-.118.75-.26 0-.07-.084-.12-.22-.14zm-1.729.234c-.099.002-.248.057-.451.166-.33.177-.6.423-.6.549 0 .126-.506.414-1.125.638-.618.225-.956.466-.75.536.207.07.375.291.375.492 0 .2.16.525.356.72.274.275.472.25.869-.109.365-.33.576-.368.725-.127.282.458-.718 1.152-1.403.973-.552-.145-.774.499-.328.945.12.12.265.076.324-.1.059-.175.298-.318.532-.318.233 0 .425-.143.425-.318 0-.175.145-.228.32-.12.177.11.395-.084.485-.429.09-.345.289-.55.441-.455.161.1.195-.155.082-.604-.156-.624-.085-.775.364-.779.47-.004.486-.05.107-.295-.309-.199-.544-.164-.75.108-.349.46-1.466 1.091-1.93 1.091-.65 0-.294-.894.43-1.076.413-.103.75-.376.75-.605 0-.23.204-.418.451-.418.248 0 .45-.14.45-.31 0-.106-.05-.157-.149-.155zm-31.244.039c-.157 0-.33.02-.508.066-.428.111-.462.2-.15.397.527.334 1.074.329 1.285-.012.163-.264-.157-.451-.627-.451zm33.363.842c-.536-.068-.873.385-.644.98.159.414.262.447.449.145.133-.216.36-.37.502-.344.498.093.443-.524-.065-.719a1.048 1.048 0 00-.242-.062zm-31.515.213c-.136-.016-.4.079-.905.271-.433.165-.703.434-.601.6.348.563 1.65.182 1.65-.483 0-.249-.009-.373-.144-.388zm25.326.271c-.34 0-.538.13-.44.287.098.158.375.21.618.117.62-.238.546-.404-.178-.404zm-32.031.299c.675 0 .724.47.076.719h-.002c-.636.243-.625.247-.625-.268 0-.247.248-.451.55-.451zm25.15.31c-.248 0-.653.132-.9.292-.4.258-.4.29 0 .29.247 0 .652-.13.9-.29.4-.259.4-.291 0-.291zm-17.305.147c-.097.01-.231.056-.396.145-.33.176-.6.45-.6.609 0 .397.406.363.84-.07.425-.425.45-.715.156-.684zm22.74.295a.177.177 0 00-.134.049c-.346.346-.221.7.248.7.667 0 .545.83-.154 1.052-.333.105-.522.323-.422.484.113.184.336.164.6-.055.328-.273.464-.235.622.178.127.33.016.664-.297.893-.607.444-.656.79-.08.568.685-.262.852.421.19.775-.335.18-.608.457-.608.616 0 .159.134.289.3.289a.31.31 0 00.3-.317c0-.174.134-.234.299-.132.165.102.3.008.31-.207.006-.238.188-.158.461.205.388.513.492.534.733.15.197-.317.15-.476-.162-.545-.6-.132-.556-.424.158-1.035.33-.283.602-.683.592-.89-.006-.223-.186-.148-.436.183-.282.372-.61.492-.967.353-.485-.188-.455-.28.287-.921 1.017-.88 1.027-.999.075-.817-.524.1-.75.011-.75-.295 0-.471-.783-1.273-1.165-1.281zm-21.619.45c-.449 0-.65.993-.252 1.245.676.429 1.704.273 2.014-.306.402-.75.036-1.067-.474-.41-.384.493-.42.493-.72-.004-.172-.29-.428-.526-.568-.526zm34.934 0c-.248 0-.44.236-.428.525.015.316.084.375.176.148.084-.207.277-.3.428-.207.15.093.273.026.273-.148 0-.175-.202-.319-.449-.319zm-31.479.3c-.247 0-.594.27-.771.6-.255.476-.228.6.129.6.247 0 .595-.27.771-.6.255-.477.228-.6-.129-.6zm-15.644.143c.092 0 .197.01.314.03 1.186.216 2.442.785 2.051.93-.197.074-.664-.029-1.037-.228-.502-.269-.706-.274-.791-.02-.211.635-.965.293-.965-.437 0-.18.153-.275.428-.275zm3.922.11c.157 0 .333.146.392.323.06.177-.117.322-.392.322s-.452-.145-.393-.322c.06-.177.236-.322.393-.322zm13.05.046c-.164 0-.3.056-.3.125s-.083.34-.184.603c-.134.35-.053.429.301.293.525-.201.672-1.021.184-1.021zm8.85.234c-.253-.03-.554.363-.994 1.29-.698 1.468-.918 1.65-4.006 3.288-.48.255-.778.56-.662.676.398.398 1.216.212 2.7-.613 2.387-1.329 2.735-1.669 3.107-3.051.282-1.05.273-1.357-.04-1.55a.258.258 0 00-.105-.04zm19.801.067c-.248 0-.451.13-.451.29 0 .16.203.213.451.118.247-.095.45-.226.45-.291 0-.065-.203-.117-.45-.117zm-42.168 1.199c-.174 0-.235.136-.133.3.102.166.246.3.319.3.072 0 .132-.134.132-.3 0-.164-.143-.3-.318-.3zm-.883.61c-.247 0-.653.13-.9.29-.4.259-.4.291 0 .291.247 0 .653-.13.9-.29.4-.26.4-.292 0-.292zm-2.662 1.04c.164-.002.262.108.262.309 0 .485-.469.595-.73.172-.092-.148.036-.345.283-.44a.548.548 0 01.185-.04zm2.64.15c-.153 0-.277.338-.277.75 0 .467-.17.75-.45.75-.481 0-.557.275-.276 1.006.096.25.355.386.576.301.474-.182.852-1.008.46-1.008-.155 0-.161-.376-.01-.9.154-.54.145-.898-.022-.898zm43.352.3c-.435 0-.624 1.505-.238 1.892.35.35.617-.057.643-.98.017-.603-.12-.913-.405-.913zm-25.289.058a.88.88 0 00-.21.059c-.264.1-.543.183-.622.183-.079 0-.06.136.041.3.275.446.661.365.871-.183.102-.265.083-.376-.08-.359zm27.137.242c-.242 0-.381.226-.324.526.055.288.11.626.123.75.061.601.623.127.623-.526 0-.446-.17-.75-.422-.75zm-40.795.043a3.576 3.576 0 00-.281.082c-.303.096-.743.176-.977.176-.234 0-.424.134-.424.299h-.002c0 .451.713.361 1.37-.174.4-.326.5-.423.314-.383zm37.469.365c-.086.017-.221.134-.434.327-.48.434-.52.627-.228 1.095.539.863.81.687.81-.527 0-.667-.005-.922-.148-.895zm-9.32.346c-.082.022-.131.074-.131.154 0 .16-.27.291-.6.291-.33 0-.6.15-.6.332 0 .202.284.262.721.153.611-.154.697-.089.565.418h-.002c-.088.334-.007.597.18.597.183 0 .333-.201.333-.449 0-.247.169-.461.375-.474.3-.02.3-.056 0-.176-.207-.084-.308-.261-.226-.395.082-.133-.053-.32-.3-.414a.538.538 0 00-.316-.037zm-27.649.162c-.143 0-.388.094-.682.283-.388.251-.38.293.057.297.279.003.591-.132.693-.297.118-.19.075-.283-.068-.283zm35.49 1.076c-.22.04-.395.268-.336.653.043.277-.057.592-.222.699-.166.107-.215.42-.11.695.214.558.795.352.795-.281 0-.224.153-.46.34-.522.203-.067.257-.373.135-.76-.119-.374-.382-.523-.602-.484zm8.192.108c-.33 0-.516.136-.414.3.102.166.455.3.785.3s.516-.134.414-.3c-.102-.164-.455-.3-.785-.3zm-22.899.002c.25 0 .355.18.252.449-.183.477-.485.574-.8.258-.278-.278.055-.707.548-.707zm-19.328.449a.541.541 0 00-.185.039c-.247.095-.375.294-.284.441.262.424.73.314.73-.171 0-.201-.096-.31-.26-.309zm-9.285.418l-.541.916c-.402.68-.726.892-1.25.822-.389-.052-.813-.266-.943-.476-.279-.451-1.571-.333-1.733.158-.061.186.322.773.852 1.303 1.105 1.105 1.861 1.094 3.654-.051 1.248-.797 1.328-1.098.535-2.012l-.574-.66zm51.559.39c-.307-.046-.612.004-.612.196 0 .163.169.363.375.445.51.204.873.095.86-.258-.007-.192-.317-.336-.623-.382zm-49.288.5c-.196.04-.268.468-.195 1.278.173 1.921-.056 2.838-.945 3.787-1.09 1.162-2.326 1.388-1.754.32.193-.36.603-.928.912-1.26.733-.786.219-1.413-.572-.697-.3.272-1.012.532-1.582.578-1.493.122-2.098.782-1.533 1.672.184.29.448.31 1.056.078.645-.245.847-.217.985.141.095.248.023.63-.159.85-.18.218-.241.486-.134.595.52.522 3.537-.116 4.267-.902.623-.67.938-1.403 1.225-2.853.18-.91.07-1.36-.621-2.543-.43-.737-.753-1.084-.95-1.043zm44.457.356c-.382-.02-.855.194-1.347.725-.928 1-1.17 1.895-.733 2.71.51.955 1.696.585 2.485-.775.835-1.44.437-2.617-.405-2.66zm4.649.426a.833.833 0 00-.307.06c-.23.089-.345.282-.254.43.21.339 1.032.355 1.032.02 0-.317-.19-.507-.471-.51zm-8.979 1.058c-.267 0-.402.136-.3.301.102.165.237.299.3.299s.197-.134.3-.299c.101-.165-.033-.3-.3-.3zm8.172.325c-.115.029-.132.164-.039.406.091.237.37.355.617.26.366-.14.375-.222.05-.428-.3-.19-.513-.267-.628-.238zm-23.258.048c.234-.02.444.099.444.368 0 .255-.256.46-.574.46-.327 0-.523-.161-.452-.374a.68.68 0 01.582-.454zm25.135.528c-.54 0-.333 1.447.225 1.574v.002c.289.065.626.067.75.004.398-.203.24-.68-.225-.68a.452.452 0 01-.449-.45c0-.248-.136-.45-.3-.45zm-57.836.01c-.502.022-1.263 1.532-1.232 2.447.037 1.098-.89 4.742-1.205 4.742-.15 0-.179 2.103-.041 2.943.049.3.615-.354.615-.71 0-.238.15-.432.332-.432.184 0 .248-.219.143-.492-.104-.271-.004-.777.222-1.125.227-.348.584-1.376.795-2.284.211-.907.57-2.162.799-2.789.399-1.095.17-2.327-.428-2.3zm47.186.29c-.248 0-.45.134-.45.3 0 .164.202.3.45.3.247 0 .451-.136.451-.3 0-.166-.204-.3-.451-.3zm-50.356.3c-.308 0-1.602 3.206-1.804 4.474-.116.726-.302 1.464-.412 1.643-.421.68-.348 2.95.119 3.662.504.77.665.838 1.185.492.503-.334 1.063-2.307.828-2.918-.124-.324-.038-.672.217-.871.233-.183.447-.738.475-1.233.095-1.658.317-3.166.488-3.337.319-.319-.595-1.913-1.096-1.913zm58.67.064c-.223-.015-.537.255-.62.69-.06.304-.297.74-.526.97-.23.23-.418.612-.418.848 0 .235.132.427.293.427.376 0 1.243-1.664.996-1.912-.104-.103-.03-.187.162-.187s.35-.214.35-.475c0-.24-.103-.352-.237-.361zm-23.144.236c.333 0 .797.921.72 1.426-.032.206-.072.51-.093.676-.02.165-.206.3-.412.299-.229 0-.397-.471-.43-1.202-.03-.66.067-1.199.215-1.199zm24.549 1.385c-.197.05-.387.28-.532.658-.528 1.38-1.104 1.902-1.88 1.707-.566-.142-.903.06-1.686 1.008-.942 1.139-1.018 1.17-2.025.861-.925-.283-1.133-.24-1.772.36-.567.533-.924.635-1.646.476-.507-.111-.993-.318-1.08-.46-.183-.295-1.948.243-1.948.593 0 .126-.337.165-.75.086-.412-.079-.75-.317-.75-.527 0-.548-1.532-.88-1.83-.397-.343.555-3 .515-3.629-.054-.872-.79-.233-1.306 1.143-.924 1.443.4 1.916.412 1.916.04 0-.44-2.246-1.015-3.117-.796-.874.22-1.422 1.589-.791 1.978.204.127.494.88.642 1.672.148.793.474 1.756.725 2.139.689 1.051 1.539.845 3.154-.762 1.208-1.201 1.757-1.515 3.131-1.79 1.773-.357 2.742-.164 3.445.683.623.75 2.186 1.307 4.112 1.463 2.202.178 3.064-.15 3.283-1.244.122-.612.441-.954 1.119-1.202.601-.22 1.221-.813 1.697-1.625.988-1.683 1.004-1.728.625-1.728a.326.326 0 00-.324.326c0 .411-1.224 1.45-1.725 1.463-.206.005-.375.137-.375.29 0 .155-.26.363-.578.464-.318.1-.864.667-1.213 1.258l-.632 1.074-1.565-.244c-.86-.134-2.062-.222-2.674-.196-1.352.058-1.686-.326-.68-.785.408-.185.74-.465.74-.62 0-.157.373-.103.827.12 1.059.52 2.397.254 2.832-.562.415-.779 1.01-1.268 2.193-1.809 1.106-.505 2.461-2.734 1.815-2.982a.321.321 0 00-.197-.012zm-43.957.137c-.078.013-.112.102-.112.265 0 .159.37.632.822 1.051.468.434 1.18.762 1.65.762 1.102 0 1.06-.479-.062-.703-.49-.098-1.164-.452-1.5-.787-.42-.42-.67-.61-.798-.588zm33.378.277c-.376 0-.178.71.336 1.207.83.801 1.316.367.534-.476-.373-.402-.765-.73-.87-.73zm38.065.691c-.302.007-.64.03-1.04.069a171.72 171.72 0 01-3.765.31c-3.03.208-3.853.344-5.1.858-3.254 1.34-7.05 3.63-7.05 4.25 0 .233-.138.424-.307.424-.169 0-.446.302-.615.673-.714 1.565-1.313 2.515-1.977 3.14-.955.896-1.353 2.053-1.125 3.273.203 1.082.1 1.182-.763.72-.788-.421-1.11.105-1.526 2.492-.367 2.11-.314 2.742.46 5.385.34 1.167.662 1.66 1.263 1.94.643.298.854.298 1.041 0 .182-.291.42-.262 1.066.125.458.273.933.508 1.057.523.321.04.28-.504-.055-.71-.477-.296-1.16-1.894-1.547-3.618-.202-.906-.431-1.584-.51-1.506-.077.078-.382.012-.677-.146-.374-.2-.583-.174-.688.086-.083.205-.16.065-.173-.309-.02-.567.102-.658.726-.545.413.075.75.002.75-.162s.134-.213.299-.111c.165.102.3.057.3-.098 0-.156.262-.35.58-.434.623-.162 1.008.402.743 1.092-.194.506 1.106.815 1.799.428.716-.401.583-1.18-.442-2.572-1.473-2.004-1.685-6.14-.416-8.078.729-1.112 3.187-3.39 3.66-3.39.207 0 .378-.14.378-.316 0-.174.113-.247.253-.16.141.087 1.18-.323 2.31-.912 1.861-.97 3.774-1.372 4.253-.892.098.097.362.023.588-.164.225-.188.491-.259.592-.159.1.1.41.06.691-.09.332-.177.775-.135 1.27.122.516.267.924.302 1.275.105.284-.159.801-.214 1.15-.123.35.091.811.02 1.026-.158.283-.235.516-.22.847.054.41.34.409.43-.01.862-.256.265-.775.86-1.152 1.32-.665.812-1.695.892-1.695.133 0-.173-.237-.111-.526.137-.288.248-.777.542-1.086.652-.445.159-.53.083-.412-.371.083-.314.042-.749-.091-.965-.173-.279-.301-.16-.444.408-.153.61-.441.848-1.201.99-.55.104-1.144.1-1.32-.01-.188-.116-.334.087-.354.495-.03.59-.058.607-.183.113-.089-.347.07-.739.392-.974.406-.297.432-.398.108-.405-.32-.006-.294-.088.093-.314.667-.388.709-1.228.05-.975-.383.147-.397.231-.075.436.306.194.277.254-.125.258-.289.002-.525.207-.525.455 0 .247-.144.449-.319.449-.175 0-.233.136-.13.3.101.166.033.3-.151.3s-.252.135-.15.3c.101.165.041.301-.133.301-.175 0-.317.194-.317.432 0 .237-.803 1.282-1.783 2.322-1.19 1.262-1.882 2.287-2.084 3.084-.35 1.382-.301 1.486.56 1.213.472-.15.556-.302.325-.58-.347-.418-.13-.772.473-.772.215 0 .316.192.226.428-.12.313.004.385.46.266.342-.09.622-.317.632-.504.028-.97 2.35-2.672 3.857-2.83.871-.092.988-.033.813.423-.193.502-.172.505.357.026.309-.28 1.003-.508 1.541-.508.727 0 1.019-.156 1.135-.602.182-.697.178-.695 1.697-.273.638.177 1.513.233 1.946.125.69-.173.723-.232.265-.488-.599-.336-.704-1.166-.146-1.159.535.007 1.399.586.883.592-.216.003-.319.123-.229.268.222.359 1.65.612 1.828.324.178-.288 1.344-.008 1.344.322 0 .313-1.699.688-2.072.457-.158-.097-.371-.04-.475.127-.104.168.012.307.258.307.245 0 .632.185.86.412.48.481 1.953.55 2.228.106.118-.192-.107-.25-.604-.155-.545.104-.795.024-.795-.256 0-.224.262-.408.582-.408.32 0 .666-.136.768-.3.102-.166.042-.3-.133-.3-.175 0-.318-.203-.318-.45 0-.787.897-.502.945.3.025.413.06.919.076 1.125.017.206.297.483.623.615.499.203.521.286.149.522-.373.235-.36.28.082.283.288.003.525-.125.525-.285 0-.629.849.079 1.002.836.09.443.256 1.19.371 1.662.144.59.08.94-.207 1.125-.353.227-.35.31.016.545.29.187.41.72.363 1.625-.038.74.067 1.43.234 1.533.346.214.773-1.15.498-1.594-.099-.16-.037-.34.14-.398.224-.075.229-.352.01-.926-.17-.45-.233-1.208-.138-1.685.126-.63-.058-1.27-.668-2.327-.463-.8-.972-1.545-1.13-1.654-.16-.11-.29-.62-.29-1.135 0-.595-.105-.832-.287-.65-.359.359-1.174.076-.928-.322.104-.168-.122-.25-.527-.194-.547.077-.73-.058-.807-.593-.079-.56-.18-.626-.521-.342-.233.193-.36.457-.28.586.08.129-.051.311-.292.404-.594.228-.94-.4-.422-.766.305-.215.236-.253-.262-.144-.371.081-.674.026-.674-.123 0-.15-.27-.274-.6-.274-.33 0-.6-.133-.6-.298 0-.165.27-.57.6-.9.718-.719.747-.901.15-.901-.248 0-.45.141-.45.314 0 .44-1.503 1.785-1.994 1.785-.677 0-.46-.688.588-1.865.668-.751 1.233-1.107 1.724-1.084 1.973.092 2.003-.448.073-1.275-.857-.368-1.43-.504-2.336-.485zm5.039.928a.408.408 0 00-.133.055c-.225.14-.148.314.227.523.31.173.74.492.959.71.218.216.575.394.793.394.358 0 .899.799.826 1.22-.016.094.368.113.853.042 1.008-.148 1.208.47.41 1.267-.259.26-.322.47-.14.47s.397-.172.478-.384c.125-.324.65-.387 2.008-.24.124.013.233.194.233.4.004.206.477.896 1.05 1.533.574.637 1.043 1.345 1.043 1.575 0 .244.31.418.75.418.907 0 .938-.28.149-1.284-.33-.42-.6-.857-.6-.974 0-.117-.537-.703-1.195-1.303-1.832-1.67-2.056-1.84-2.393-1.84a.317.317 0 01-.312-.318c0-.175-.134-.235-.299-.133-.165.102-.3.04-.3-.14 0-.18-.237-.41-.526-.512a36.881 36.881 0 01-1.809-.754c-.706-.312-1.416-.486-1.576-.387-.16.099-.289.028-.289-.156 0-.139-.086-.206-.207-.182zm-78.455.498c-.164-.012-.237.254-.098.807.292 1.161.641 1.5 2.537 2.47.92.471 1.97.868 2.334.881 1.014.039 2.165-.585 1.979-1.072-.137-.356-.28-.346-.905.063-.852.558-2.185.363-2.185-.32 0-.245-.237-.46-.525-.48-1.452-.095-2.059-.459-2.485-1.487-.232-.56-.488-.85-.652-.862zm72.178.686a.348.348 0 00-.116.049c-.165.102-.3.319-.3.484 0 .165.135.217.3.115.165-.102.3-.321.3-.486 0-.124-.077-.183-.184-.162zm7.789.822c-.329.045-.693.601-.701 1.135-.004.238.238.111.574-.301.33-.406.442-.756.263-.82a.284.284 0 00-.136-.014zm-2.07.111c-.065-.017-.204.041-.442.168-.326.175-.594.444-.594.598 0 .413.826.024 1.02-.48.066-.174.08-.268.015-.286zm-83.233.364c-.225.01-.343.404-.152 1.004.104.328.382.597.619.597.524 0 .528-.237.013-1.166-.17-.308-.345-.441-.48-.435zm19.648.4c-.412 0-.75.136-.75.3 0 .166.338.302.75.302.413 0 .75-.136.75-.301 0-.165-.337-.3-.75-.3zm-23.42.106a.313.313 0 01.176.044c.48.297.354 1.094-.41 2.6-.39.77-.796 1.739-.9 2.154-.105.416-.385.952-.625 1.192s-.845 1.81-1.344 3.49c-.499 1.68-.984 3.181-1.08 3.336-.236.381-.738.356-.738-.037 0-.175.133-.235.298-.133.17.105.301-.147.301-.582 0-.422-.15-.768-.336-.768-.233 0-.224-.137.033-.447.204-.245.51-.361.68-.256.206.128.227-.097.06-.677-.385-1.346-.269-2.573.272-2.875.27-.152.49-.56.49-.91s.187-.851.414-1.112c.766-.877 1.944-3.383 1.786-3.797-.169-.439.478-1.21.923-1.222zm6.829.38a.349.349 0 00-.16.094c-.208.208-.12.513.273.947.5.555.592.574.678.143.12-.604-.396-1.287-.791-1.184zm31.017.006c.337-.009.55.087.625.285.085.222.085.578 0 .79-.102.253-.162.265-.178.035-.013-.193-.395-.476-.85-.627l-.823-.276.847-.162c.14-.026.267-.042.38-.045zm33.033.219c-.078-.078-.424.237-.771.7-.347.462-.741.975-.875 1.14-.621.766-1.863 2.713-1.863 2.92 0 .595.556.11 1.197-1.045.39-.701.786-1.343.88-1.426.45-.39 1.558-2.163 1.432-2.289zm-76.927.49c.155 0 .204.202.109.45-.095.247-.043.45.117.45s.291.134.291.3c0 .485-.428.344-.81-.268-.355-.567-.24-.932.293-.932zm74.654.02c-.164.031-.393.203-.65.506-.652.766-2.086 3.277-2.086 3.652 0 .833.616.135 1.566-1.773.573-1.153 1.13-2.008 1.238-1.9.108.107.196.037.196-.155 0-.253-.1-.362-.264-.33zm10.217.363c.086-.025.186.038.328.18.283.283.266.429-.084.672-.337.233-.355.348-.072.463.669.271.399.6-.786.955-1.514.453-1.602.442-1.482-.178.059-.306.37-.526.746-.526.355 0 .747-.1.871-.224s.068-.225-.125-.225c-.192 0-.346-.236-.346-.525.003-.402.064-.432.258-.125.2.316.296.29.455-.125.08-.205.15-.317.237-.342zm-23.436.217c-.175 0-.318.136-.318.3 0 .166.06.3.133.3.072 0 .216-.134.318-.3.102-.164.042-.3-.133-.3zm16.451.068c-.044-.039-.15.047-.27.233-.16.247-.29.585-.29.75 0 .165.13.097.29-.15.16-.248.292-.586.292-.75 0-.042-.007-.07-.022-.083zm5.465.239a.214.214 0 01.125.052c.063.063-.144.274-.459.471-.325.203-.644.24-.74.086-.142-.23.705-.66 1.074-.61zm-1.86.03c.105.005.195.033.245.083.1.1-.076.169-.393.156-.35-.014-.42-.086-.181-.182a.817.817 0 01.33-.056zm-45.605.262c-.376 0-.334.416.086.836.196.196.401.308.457.252.184-.183-.268-1.088-.543-1.088zm62.899.301c-.073 0-.215.134-.317.3-.102.164-.043.3.131.3.175 0 .319-.136.319-.3 0-.166-.06-.3-.133-.3zm-19.287.407c.066-.028.187.042.369.193.247.205.451.552.451.77 0 .704-.528.743-.713.052-.175-.654-.218-.97-.107-1.015zm-50.33.267c-1.34.02-1.831.377-.825.598.48.105 2.174-.303 2.174-.524 0-.051-.607-.085-1.35-.074zm70.558.326c-.09.01-.26.126-.508.35-.33.299-.601.657-.601.797 0 .47.577.259.89-.326.3-.559.37-.837.22-.82zm-9.658.5c-.248 0-.451.113-.451.25 0 .138.203.25.451.25.247 0 .45-.112.45-.25 0-.137-.203-.25-.45-.25zm-74.863.084c-.2-.03-.287.07-.287.313 0 .52 1.02.95 1.521.64.18-.11.52.074.758.412.359.513.687.6 1.965.512 1.374-.093 2.037-.46 2.05-1.137.004-.123-.197-.224-.445-.224-.247 0-.449.13-.449.287 0 .158-.482.376-1.07.486-.884.166-1.15.091-1.516-.431-.244-.348-.74-.618-1.103-.598-.364.02-.897-.063-1.186-.186a1.037 1.037 0 00-.238-.074zm73.226.412c-.14-.02-.408.032-.86.147-1.004.257-3.124.944-4.253 1.38-.248.096-.518.19-.6.21-.989.226-3.238 1.226-3.134 1.394.074.121.845-.042 1.71-.363 2.72-1.008 5.92-2.063 6.15-2.027.556.086.923-.07 1.071-.457.066-.172.056-.263-.084-.284zm-78.174.147a.327.327 0 00-.183.02c-.628.206-.682 2-.08 2.665.477.527 1.324.788 1.324.409 0-.09-.274-.457-.61-.817-.45-.484-.56-.878-.42-1.521.109-.491.107-.717-.03-.756zm72.028.412a.538.538 0 00-.317.037c-.247.095-.45.224-.45.29 0 .064.203.118.45.118.248 0 .45-.13.45-.29 0-.08-.052-.134-.133-.155zm-57.196.162c-.164-.002-.271.133-.271.408 0 .234.37.55.824.705v.002c.454.155 1.028.244 1.276.198.247-.046.552-.095.675-.108.124-.012.225-.174.225-.36 0-.212-.324-.273-.875-.163-.577.115-.997.027-1.236-.262-.231-.278-.453-.418-.618-.42zm66.604.02a.828.828 0 00-.332.058c-.24.096-.168.167.182.182.316.013.494-.059.394-.158-.05-.05-.14-.078-.244-.082zm-57.773.093c-.079-.027-.153.008-.213.106-.107.172.223.73.732 1.238.509.509 1.15.924 1.426.922.348-.002.207-.237-.467-.768-.534-.42-1.09-.975-1.234-1.234-.083-.147-.166-.237-.244-.264zm67.93.05c-.13-.031-.29.037-.536.19-.322.202-.65.539-.73.749-.183.476.2.495.662.033.263-.263.458-.254.808.037.536.445.595.217.155-.606-.13-.243-.23-.373-.36-.404zm-24.66.12c.278 0 .431.204.374.5-.146.753-.846.856-.846.125 0-.368.193-.625.471-.625zm13.4.09c-.12-.027-.39-.015-.823.033-.66.074-1.234.161-1.275.194a1.155 1.155 0 01-.299.12c-.124.035-.58.21-1.014.391-.433.18-1.378.482-2.1.668-1.845.478-4.462 1.568-4.462 1.86 0 .372.397.294 1.135-.223.366-.257.666-.4.666-.316 0 .083.506-.062 1.125-.325.618-.262 1.651-.541 2.296-.619.645-.077 1.592-.394 2.102-.705.51-.31 1.197-.569 1.527-.572.33-.003.802-.14 1.05-.305.162-.108.191-.174.071-.2zm13.212.02c-.138.047-.26.264-.324.666-.05.316-.209.843-.353 1.173-.465 1.061-.974 3.745-.797 4.206.094.245.374.445.623.445.248 0 .658.398.91.885.533 1.03.577 1.325.158 1.066-.165-.102-.3-.044-.3.13 0 .176-.205.32-.456.32-.345 0-.407-.2-.258-.825.219-.91-.087-.765-.615.293-.186.374-.538.683-.781.684-.287.002-.43.287-.408.816.017.447-.074.749-.201.67-.128-.08-.456.079-.729.351-.4.4-.42.546-.1.745.223.138.44.118.497-.045.055-.16.291-.29.525-.29.234 0 .426-.13.426-.29 0-.16.2-.214.447-.12.258.1.528-.037.637-.322.104-.271.409-.471.677-.445.88.085 1.018-.017.64-.473-.258-.31-.271-.449-.04-.449.185 0 .527-.44.762-.977.234-.536.437-.798.45-.582.014.216.148.318.298.225.15-.092.201.101.115.43-.086.328-.29.513-.453.412-.183-.113-.22.06-.098.447.11.347.06.87-.11 1.162-.17.292-.308.41-.318.262-.014-.44-1.209 1.072-1.209 1.53 0 .229-.345.762-.767 1.185-.423.422-.705.834-.627.912.212.212 1.394-.48 1.394-.817 0-.159.136-.29.301-.29.48 0 .346 1.5-.15 1.69-.608.234-.57.64.074.778h.002c.693.149 1.34-.257 1.955-1.226l.791-1.243c.563-.874 1.229-2.497 1.229-2.998 0-.278-.268-1.287-.596-2.24-.328-.952-.528-1.84-.445-1.974.083-.135.012-.33-.157-.434-.168-.104-.222-.52-.12-.922.219-.874-.353-.992-.993-.205-.31.382-.47.421-.584.148-.086-.206-.414-.375-.73-.375-.328 0-.576-.205-.576-.48 0-.305.166-.42.45-.31.248.094.45.042.45-.118s.281-.29.625-.29c.373 0 .57-.152.488-.376-.075-.206-.289-.341-.472-.3-.184.04-.421-.471-.528-1.137-.123-.769-.398-1.157-.629-1.078zm-10.267.19a.31.31 0 00-.317.3c0 .165.058.3.131.3.073 0 .217-.135.319-.3.102-.165.042-.3-.133-.3zm-93.158.302c.247 0 .449.134.449.299 0 .165-.202.3-.45.3-.247 0-.45-.135-.45-.3 0-.165.203-.3.45-.3zm95.957.4a.341.341 0 00-.116.047c-.165.102-.3.321-.3.486 0 .165.135.218.3.116.165-.102.3-.322.3-.487 0-.123-.077-.183-.184-.162zm-5.47.211c-.203-.01-.591.051-1.234.18-.554.11-.815.282-.617.404.417.258 1.75.032 1.977-.334.097-.157.078-.24-.125-.25zm4.538.014c-.248-.054-.684.31-.684.627 0 .199.172.176.457-.06.252-.21.395-.44.319-.516a.181.181 0 00-.092-.051zm-95.61.273c.074 0 .133.136.133.301a.31.31 0 01-.316.3c-.174 0-.235-.135-.133-.3.102-.165.244-.3.317-.3zm4.432.121a.334.334 0 11.102.658.334.334 0 01-.102-.658zm-3.129.162c.063-.006.135.024.211.1.1.1.127.35.057.559-.102.305-.172.305-.361 0-.188-.304-.094-.64.093-.659zm36.176.18c-.148.044-.32.232-.455.588-.202.531-.198.978.012 1.37.17.318.508.58.75.58.513 0 .584-.476.115-.766-.178-.11-.244-.515-.148-.899.155-.62-.027-.947-.274-.873zm-31.053.137c-.55 0-.314 2.001.334 2.826.83 1.055 1.074.768.455-.535-.269-.567-.49-1.316-.49-1.662 0-.347-.134-.63-.299-.63zm81.104.076a5.053 5.053 0 00-.518.094c-.515.11-1.735.52-2.713.914-.977.393-1.956.717-2.175.717-.22 0-.399.201-.399.449 0 .558.263.571.877.043.665-.572 2.378-1.108 2.567-.803.086.14.428.182.757.096 1.29-.338.514.495-.9.965-.825.274-1.5.621-1.5.773 0 .359.04.354 1.275-.162 1.13-.472 1.424-.371 1.424.488 0 .387-.223.549-.75.549-.412 0-.75.152-.75.336 0 .21.254.256.676.125.371-.115.978-.28 1.35-.37.37-.088.675-.275.675-.415 0-.14.188-.185.418-.096.231.089.51.018.62-.158.113-.184-.04-.32-.36-.32-.307 0-.71-.153-.894-.338-.596-.596-.075-1.163 1.072-1.168.6-.003 1.295-.145 1.543-.317.326-.227.089-.259-.865-.113-1.301.199-1.315.192-1.164-.598.108-.567.113-.727-.266-.691zm-78.475.016c-.061-.017-.109-.013-.136.015-.365.365 1.002 1.839 1.888 2.035 1.167.26 1.694.183 1.844-.267.085-.254-.227-.375-.965-.375-.794 0-1.29-.216-1.828-.797-.305-.329-.618-.562-.803-.611zm60.371.209c.165 0 .3.27.3.6 0 .33-.135.599-.3.599-.165 0-.3-.27-.3-.6 0-.33.135-.6.3-.6zm26.55.298c-.413 0-.75.116-.75.258 0 .142.337.194.75.115.412-.078.75-.194.75-.257 0-.064-.338-.116-.75-.116zm-18 .301c-.248 0-.45.134-.45.299 0 .165.202.3.45.3.247 0 .45-.135.45-.3 0-.165-.203-.299-.45-.299zm-38.638.451c-.05.004-.091.09-.13.248-.223.91.164 1.883.886 2.23.375.181.85.34 1.057.35.649.036.408-.581-.338-.865-.397-.15-.88-.712-1.092-1.267-.182-.48-.297-.701-.383-.696zm38.038.123l-.75.2c-1.345.354-1.796.987-1.672 2.341.061.68.126 1.809.142 2.51.025 1.037.134 1.276.592 1.276.31 0 .73-.202.934-.448.204-.245.482-.378.617-.295.135.084.337.003.45-.18.134-.218-.08-.294-.63-.228-.69.084-.88-.047-1.119-.76-.217-.647-.187-.924.123-1.12.228-.145.264-.262.08-.264-.186-.003-.317-.479-.299-1.08.024-.81.216-1.182.782-1.512l.75-.44zm-53.83.026c-.777 0-.11 1.07.882 1.414 1.19.413 2.284.38 2.172-.065-.041-.165-.49-.298-.998-.298-.534 0-1.087-.223-1.308-.526-.212-.289-.548-.525-.748-.525zm73.347.144a.616.616 0 00-.318.047c-.248.095-.45.29-.45.432 0 .142.202.18.45.086.247-.095.451-.29.451-.432 0-.071-.051-.117-.133-.133zm-95.803.157c.157 0 .206.251.108.558-.098.307-.228 1.261-.29 2.12-.123 1.73-.454 2.41-.509 1.046-.019-.481-.059-1.346-.088-1.924-.053-1.065.264-1.8.78-1.8zm13.73.222c-.27.045-.224.447.313.985.507.506.818.585 1.586.398a10.42 10.42 0 011.856-.252c.92-.02 1.65-.327 1.65-.697 0-.114-.675-.207-1.5-.207s-1.5.087-1.5.193c0 .501-.938.464-1.61-.064-.354-.28-.631-.383-.794-.356zm54.505.285c.12-.014.232.045.36.172.6.6.375 1.097-.485 1.072-.454-.012-1.098.069-1.432.18-.334.112-.701.11-.816-.006-.352-.352.07-.726.82-.726.391 0 .904-.193 1.14-.43.161-.16.292-.248.413-.262zm-21.317.21a1.689 1.689 0 00-.474.177c-.355.19-1.04.257-1.526.15-.874-.192-1.258.24-.507.57.53.234 2.363-.035 2.728-.4.363-.362.188-.574-.22-.498zm29.067.181c-.248 0-.45.136-.45.3 0 .166.202.302.45.302.247 0 .451-.136.451-.301 0-.165-.204-.301-.451-.301zm12.601 0c-.247 0-.45.136-.45.3 0 .166.203.302.45.302.248 0 .45-.136.45-.301 0-.165-.202-.301-.45-.301zm-78.197.502c-1.383.072-1.373.065-.72.559.664.502 1.042.542 1.63.17.652-.414.188-.786-.91-.73zm85.397.1c-.247 0-.335.224-.237.6.087.33.193.599.237.599.044 0 .15-.27.236-.6.098-.375.01-.6-.236-.6zm7.34.298c.369 0 .533.15.437.4-.084.22-.35.401-.59.401s-.437-.18-.437-.4c0-.22.265-.4.59-.4zm-26.776.315c-.34.024-.814.315-.814.588 0 .222.19.216.625-.016.344-.184.552-.408.462-.498-.061-.062-.16-.082-.273-.074zm-9.215.287a.3.3 0 01.301.299c0 .165-.136.3-.3.3a.3.3 0 010-.6zm-9.9.299c-.33 0-.6.136-.6.3 0 .166.27.3.6.3.33 0 .601-.134.601-.3 0-.164-.271-.3-.601-.3zm-20.998.006c-.151-.025-.301.057-.301.27 0 .615.388 1.224.781 1.224.23 0 .418.14.418.31 0 .17.305.431.676.58.818.33 1.517.37 2.15.127.844-.324.504-.641-.654-.611-1.174.03-2.745-.84-2.762-1.531a.374.374 0 00-.308-.37zm51.197.033c-.078-.013-.24.01-.498.082-.413.115-.886.255-1.05.312-.166.058-.604.202-.975.32-.372.12-.676.351-.676.514 0 .168.229.2.525.075.289-.123.961-.382 1.494-.577.892-.325 1.413-.687 1.18-.726zm-60.652.101c-.211-.02-.666.14-1.326.485-.985.513-1.544.612-2.622.465-1.194-.164-1.323-.13-.998.261.656.79 3.998.365 4.809-.613.313-.377.347-.578.137-.598zm17.072.487c-.25-.035-.418.043-.418.248 0 .151.169.342.375.426.206.083.637.162.957.175.576.024.576.018 0-.418-.33-.25-.664-.397-.914-.431zm32.773.033c-.198-.076-.61.148-.722.484-.073.22.063.286.355.174.261-.1.475-.313.475-.474 0-.099-.041-.159-.108-.184zm-64.726.06c-.1-.02-.166.034-.21.163-.163.491.898 1.437 1.778 1.584.64.106 2.535-.436 2.942-.842.086-.086-.039-.278-.278-.426-.287-.178-.61-.109-.957.205-.623.564-2.117.361-2.869-.39-.175-.176-.307-.272-.406-.294zm-7.465.18c-.443 0-.366.675.166 1.434.257.366.771.666 1.143.666.37 0 1.138.344 1.707.765.8.594 1.338.752 2.384.7.743-.038 1.68.107 2.082.324a9.924 9.924 0 001.5.627c1.08.327 1.37.324 2.27-.018.896-.34 1.7-1.046 1.46-1.285-.086-.087-.75.102-1.474.422-1.52.672-2.518.532-3.508-.496-.493-.512-.77-.613-1.052-.38-.607.505-3.058.103-3.535-.58-.246-.35-.782-.597-1.325-.612-1.167-.034-1.52-.262-1.52-.985 0-.32-.133-.582-.298-.582zm-2.508.438c.066-.038.1.03.106.2.006.27-.21.67-.475.891-.266.221-.606.676-.756 1.012-.215.48-.237.424-.1-.262.11-.55.034-.96-.208-1.109-.211-.13-.276-.343-.145-.475.131-.13.382.016.557.329.302.54.337.533.716-.153.14-.252.239-.396.305-.433zm84.787.062a1.64 1.64 0 00-.529.026c-.413.078-.75.196-.75.26 0 .063.337.115.75.115.412 0 .75-.118.75-.26 0-.071-.085-.12-.22-.14zm9.801.096c-.147.017-.275.325-.44.98-.156.624-.095.825.243.825.532 0 .845-.968.496-1.534-.116-.187-.21-.281-.299-.271zm-65.078.016l-1.053.011.826.45c.454.246.825.634.825.865 0 .23.219.639.486.906.695.695.795.41.353-1.006-.357-1.145-.463-1.238-1.437-1.226zm15.283.939a1.41 1.41 0 00-.51.1c-.482.196-.476.234.075.46.821.338.985.336 1.2-.013.19-.306-.255-.554-.765-.547zm-12.412.195c-.096.047-.083.242.049.586.254.662 1.186 1.548 1.967 1.871h.002c1.073.443 2.144.225 2.226-.453.04-.33-.005-.43-.098-.224-.338.748-1.61.383-2.794-.801-.727-.726-1.192-1.057-1.352-.979zm51.877.055c-.248 0-.451.134-.451.299 0 .165.203.3.451.3.247 0 .45-.135.45-.3 0-.165-.203-.299-.45-.299zm-16.898.041c-.123-.032-.239.033-.391.184-.297.292-.3.375-.012.375.256 0 .288.163.102.525-.25.487-.237.697.129 1.842h.002c.162.509.51.213.586-.498a4.12 4.12 0 01.25-.979c.107-.252 0-.723-.24-1.049-.176-.237-.304-.368-.426-.4zm-69.627.26c.175 0 .234.134.132.299-.101.165-.245.3-.318.3-.072 0-.13-.135-.13-.3 0-.165.14-.3.316-.3zm-.778.138c.018.007.038.035.059.086a1.16 1.16 0 010 .75c-.083.207-.15.038-.15-.375 0-.309.037-.48.091-.46zm26.285.473c-.15-.034-.331.042-.459.248-.325.526-2.014.645-2.668.188-.787-.552-1.105-.569-1.105-.057 0 .216.37.527.824.691 1.112.404 1.555.415 2.701.067.537-.163.975-.488.975-.723s-.118-.38-.268-.414zm17.436.166c-.04.012-.06.051-.057.121.01.572.568 1.296 1.338 1.738.748.43 1.35.457 1.35.063 0-.165-.195-.3-.434-.3s-.847-.44-1.35-.975c-.427-.457-.727-.681-.847-.647zm-42.043.723c.175 0 .235.134.133.299-.102.165-.246.3-.319.3-.072 0-.132-.135-.132-.3 0-.165.143-.3.318-.3zm-1.518.299c.165 0 .301.128.301.283 0 .155-.136.365-.3.467-.166.102-.301-.024-.301-.282 0-.257.135-.468.3-.468zm2.688.033c.232.091.423.804.43 1.914.005 1.116-.126 1.806-.356 1.883-.38.127-.44-.11-.4-1.58.013-.495-.053-.732-.145-.526-.253.568-1.118.474-.898-.097.1-.261.181-.54.181-.62 0-.078.127-.065.28.03.153.094.366-.108.474-.45.14-.44.294-.61.434-.554zm5.623.072c-.073-.007-.129.004-.16.035-.087.088-.102.202-.033.254l.99.75c1.006.763 1.082.782 1.082.28-.002-.363-1.368-1.268-1.879-1.319zm21.586.195c.057 0 .103.202.103.45 0 .247-.158.45-.351.45-.193 0-.576.202-.85.45-.467.423-.898.338-.898-.178 0-.19 1.67-1.172 1.996-1.172zm17.465.069c-.178-.007-.27.11-.27.347 0 .315.261.483.75.483.413 0 .75-.134.75-.299 0-.165-.124-.3-.275-.3-.152 0-.49-.082-.75-.182a.656.656 0 00-.205-.05zm-27.604.23c-.53 0-.247.892.531 1.67.705.705.978.78 2.36.666.997-.083 1.864-.366 2.394-.783.982-.772.66-.834-.912-.178-1.464.612-2.98.344-3.625-.638-.265-.405-.602-.737-.748-.737zm57.489.02c-.398-.015-.454.138-.454.625 0 1.036.774 1.996 1.727 2.14 2.315.352 2.669.171 2.18-1.115-.306-.803-1.225-1.3-2.932-1.586a4.383 4.383 0 00-.521-.064zm-34.643.01c-.096-.018-.199.038-.322.162-.417.416 1.53 2.417 2.513 2.582.67.112 2.297-.625 2.297-1.04 0-.336-.53-.289-.75.067-.102.165-.631.299-1.176.299-.947 0-1.38-.343-2.273-1.797-.101-.165-.193-.256-.29-.273zm-8.336.119a.504.504 0 00-.162.117c-.48.48.803 1.724 2.142 2.08.986.262 2.838.18 3.42-.152.124-.071.225-.34.225-.598 0-.367-.092-.394-.418-.123-1.072.89-4.481.237-4.852-.93-.103-.325-.209-.451-.355-.394zm61.053.447c-.336.014-.776.24-1.252.754-.383.412-.839.75-1.014.75-.175 0-.564.308-.865.685-.526.66-2.408 1.634-2.873 1.487-.124-.04-.225.063-.225.228 0 .456 1.4.358 1.89-.133.239-.237 1.158-.514 2.046-.615 1.26-.143 1.76-.363 2.279-.994.986-1.201.752-2.193.014-2.162zm5.959.305c-.268 0-.487.201-.487.449 0 .247.052.451.114.451.062 0 .28-.204.486-.451.306-.369.285-.45-.113-.45zm-93.246.029a.165.165 0 00-.118.047c-.41.411 1.106 1.66 2.418 1.99.71.179 1.366.519 1.457.756.091.237.476.492.858.568 1.062.212 2.067.092 2.023-.242-.021-.165-.178-.26-.345-.213-.48.137-2.334-.55-2.334-.865 0-.628 1.471-.982 2.62-.629 1.353.415 2.111-.055.858-.531-1.31-.498-3.105-.39-3.44.207-.26.465-.435.48-1.714.138-.784-.21-1.595-.612-1.801-.894-.154-.211-.344-.335-.482-.332zm91.263.27c-.163 0-.528.506-.81 1.124a62.868 62.868 0 01-.63 1.352c-.063.124.007.225.155.225.227 0 1.58-2.208 1.58-2.579 0-.066-.132-.123-.295-.123zm-69.726.091c.21-.046.466.128.877.57.404.436 1.008.88 1.343.987.336.106.61.319.61.473 0 .462-.99.314-1.992-.297-1.177-.718-1.474-1.18-1.037-1.616a.407.407 0 01.199-.117zm71.16.846c-.035-.022-.15.117-.373.396-.256.32-.465.785-.465 1.034 0 .634.484.058.73-.868.096-.36.142-.54.108-.562zm-73.217.264c.466 0 .466-.02-.117 3.9-.11.743-.21 1.823-.223 2.4-.013.578-.21 1.195-.437 1.373-.304.238.614.347 3.449.405 2.125.043 4.135.09 4.465.103a7.83 7.83 0 001.35-.103c.681-.117.75-.033.75.922v1.05l-4.58.02c-2.52.011-4.631-.03-4.692-.092-.061-.061-2.184-.152-4.719-.203l-4.61-.094-.327-.98c-.246-.734-.375-.857-.516-.49-.23.597-.807.649-.807.072 0-.408 1.352-.963 1.95-.801 1.24.337 7.25.519 7.54.229.338-.338-.251-.831-.788-.66-.807.255-2.102-.147-2.102-.655 0-.26.216-.397.525-.334.643.131 1.48-1.133 2.073-3.129.234-.788.553-1.433.709-1.433.155 0 .367-.338.47-.75.104-.413.39-.75.637-.75zm69.647.029c-.265.039-.569.39-.569.76 0 .391.067.386.487-.034.267-.267.41-.559.32-.65a.268.268 0 00-.238-.076zm-62.801.137c-.132-.024-.168.072-.168.275 0 .283.528.706 1.275 1.023 1.104.47 1.93.573 3.051.381.656-.112-.249-.472-1.324-.527-.648-.033-1.588-.354-2.09-.71-.385-.275-.612-.418-.744-.442zm-15.848.134c-.137-.004-.218.066-.215.223.01.5.519.972 1.506 1.4.572.249 1.108.457 1.19.463.51.035 2.586-.712 2.77-.996.405-.629.235-.889-.296-.449-.86.712-3.238.693-3.963-.031-.383-.384-.764-.602-.992-.61zm23.098.086c-.062-.003-.11.01-.14.041-.125.128.31.697.964 1.266 1.03.894 1.352 1.015 2.398.898.666-.074 1.446-.23 1.735-.345.776-.312.647-.853-.149-.62-2.02.593-2.639.468-4.048-.816-.278-.253-.576-.413-.76-.424zm27.533.213c-.582 0-.568.172.074.875.592.648.944.73 1.53.36.298-.19.2-.307-.376-.452-.428-.107-.779-.326-.779-.488 0-.162-.202-.295-.449-.295zm-39.607.07c.285-.015.545.094.652.372.099.257.012.668-.191.914-.481.58-.897.57-.897-.022 0-.257-.134-.385-.299-.283-.165.102-.297.077-.297-.057.01-.523.556-.897 1.032-.923zm52.752.231c-.382 0-.4.082-.098.445.204.246.492.372.64.28.384-.237.018-.725-.542-.725zm-73.971.03a.16.16 0 00-.1.044c-.282.282.161.84.881 1.108.822.306 1.48.21 1.629-.235.07-.211-.226-.347-.75-.347-.476 0-1.023-.16-1.219-.356-.146-.146-.32-.227-.441-.215zm94.263.316c-.142-.001-.15.233-.06.703.08.423.003.75-.18.75-.196 0-.274.47-.197 1.21.106 1.015.044 1.197-.387 1.126-.282-.047-.678-.288-.879-.535-.242-.299-.365-.328-.375-.086-.014.557-1.209 1.107-1.586.73-.215-.215-.667-.13-1.466.277-1.262.644-1.588 1.363-.483 1.067.371-.1.845-.182 1.05-.184.207-.002.376-.229.376-.504 0-.673.285-.349.451.512.074.381.286.787.473.902.44.272.063 1.485-.461 1.485-.218 0-.486-.472-.594-1.05-.108-.577-.32-1.05-.473-1.05-.406 0-.968 1.182-.787 1.654.086.224-.004.473-.2.553-.384.156.127.234 2.04.31.66.027 1.36.148 1.555.27.195.123.44.085.545-.086.105-.17.322-.23.482-.13.509.314 3.669.356 5.069.068 1.088-.224 1.406-.19 1.636.172v.002c.341.536.872.303.647-.284-.234-.608.45-.892.771-.32.372.665 1.218.64 1.09-.033-.128-.674-1.51-.844-2.732-.338-.705.292-.95.298-1.041.025-.082-.246-.286-.268-.657-.07-.295.158-.607.215-.695.127-.308-.308-3.077-.326-3.746-.025-.783.352-.826.322-1.08-.74-.165-.69-.11-.776.408-.641.334.087.598.01.598-.178 0-.184.236-.596.525-.914 1.877-2.068 2.18-3.068 1.23-4.068-.446-.472-.724-.707-.867-.707zm-17.064.002c-.69-.03-.962.085-1.234.414-.486.585-.622 1.937-.196 1.937.15 0 .19.209.092.465-.189.492.505 1.824 1.287 2.469.695.572 1.307.322 1.565-.64.126-.472.42-1.08.654-1.35.234-.271.568-.924.744-1.45.413-1.232.083-1.517-2.064-1.77-.34-.039-.618-.065-.848-.075zm-54.31.3a.66.66 0 01.22.01c.289.056.498.234.465.397-.104.521-.99.518-.99-.004 0-.232.11-.373.304-.403zm24.95.102c.162.013.245.166.245.459 0 .683-.46.792-.7.166-.09-.234.031-.5.268-.592a.433.433 0 01.188-.033zm-53.773.15c.34 0 .617.134.617.3 0 .164-.193.3-.431.3s-.517-.136-.62-.3c-.101-.166.095-.3.434-.3zm83.41.047c.5.014 1.005.247.786.467-.342.341-1.346.392-1.54.078-.1-.164.026-.377.284-.476.137-.053.304-.073.47-.069zm9.916.252a.308.308 0 00-.316.299c0 .165.058.3.13.3.074 0 .217-.135.32-.3.101-.165.041-.299-.134-.299zm4.9.102a.357.357 0 00-.116.049c-.165.102-.301.319-.301.484 0 .165.136.217.3.115.166-.102.301-.321.301-.486 0-.124-.076-.183-.183-.162zm-7.41.263c-.05.017-.139.192-.3.536-.194.412-.844 1.25-1.444 1.86-.6.612-1.015 1.186-.925 1.276.272.273.662.183.662-.152 0-.173.473-.802 1.05-1.397.578-.594 1.04-1.363 1.03-1.709-.01-.288-.022-.43-.072-.414zm-52.23.057c-.056-.008-.1 0-.127.027-.11.11.18.528.643.926.862.742 3.207 1.052 3.207.424 0-.165-.54-.299-1.2-.299-.815 0-1.399-.2-1.824-.625-.257-.258-.532-.43-.699-.453zm-10.816.09c.138-.017.386.045.748.181.536.203.9.555.9.874 0 .293-.035.522-.076.51-.702-.222-1.039-.427-1.35-.82-.375-.472-.452-.717-.222-.745zm66.66.113c-.098-.022-.302.172-.7.62-.568.64-.567.64.104.288.372-.194.676-.485.676-.644 0-.16-.021-.25-.08-.264zm-86.373.076c-.319-.001-.116.288.693.782 1.204.733 2.227.795 2.475.148.135-.35.041-.427-.37-.297-.302.096-1.057-.037-1.679-.297-.55-.23-.928-.335-1.12-.336zm80.953.014c-.105.016-.322.176-.65.484-.413.388-.75.885-.75 1.104 0 .66.439.448.984-.475.453-.766.59-1.14.416-1.113zm8.2.186c-.166 0-.3.21-.3.466 0 .258.134.385.3.284.164-.102.3-.314.3-.47 0-.154-.136-.28-.3-.28zm-4.403.023c-.36-.024-2.197 2.022-2.197 2.447 0 .129.405-.127.9-.568.495-.441.9-.971.9-1.178 0-.206.17-.442.375-.525.264-.106.27-.16.022-.176zm-66.406.277c.174 0 .316.134.316.3 0 .164-.06.3-.133.3-.072 0-.214-.136-.316-.3-.102-.166-.042-.3.133-.3zm57.2.057c.258.022.54.183.634.467.073.22-.134.375-.5.375-.369 0-.625-.193-.625-.471 0-.276.234-.393.492-.371zm-81.042.084c.105-.005.158.046.158.148 0 .171.196.31.434.31.237 0 .527.156.644.345.147.237-.035.296-.584.191-.517-.099-.793-.021-.793.223 0 .206.472.464 1.049.572.629.118 1.05.372 1.05.633 0 .46-.358.577-.704.23-.113-.113-.676-.367-1.25-.564-.767-.264-1.05-.27-1.067-.02-.011.187-.129.07-.26-.26-.144-.365-.105-.686.098-.82.213-.14.154-.221-.16-.224-.271-.003-.578.22-.684.496-.142.37-.279.412-.529.162-.475-.475.21-1.245.938-1.055.307.08.84-.006 1.187-.191.209-.112.367-.172.473-.176zm2.289.459c.611 0 3.27 1.646 3.27 2.025 0 .207-.101.355-.225.33-.124-.024-.583-.1-1.02-.168-.469-.072-.857-.36-.947-.705a.798.798 0 00-.781-.582c-.359 0-.627-.194-.627-.45 0-.248.148-.45.33-.45zm43.592.13a.342.342 0 00-.174.046c-.243.15-.18.337.205.619.669.489 1.827.529 2.11.072.136-.22 0-.268-.403-.14a1.076 1.076 0 01-1.084-.288c-.198-.197-.457-.312-.654-.308zm46.734.192c-.117-.003-.293.087-.445.24-.294.297-.26.331.168.168.296-.112.463-.28.37-.373a.133.133 0 00-.093-.035zm-2.012.006c-.1-.061-.555.295-1.261 1.022-.689.708-.869 1.048-.555 1.048a.457.457 0 00.463-.449c0-.247.17-.449.379-.449.208 0 .546-.272.752-.602.216-.346.283-.533.222-.57zm-65.715.06c.815.007 1.67.224 1.67.495 0 .458-.4.583-.939.295-.38-.203-.754-.196-1.16.021-.43.23-.6.23-.6-.006 0-.18-.136-.246-.3-.144-.166.102-.301.054-.301-.108 0-.161.387-.378.861-.482.23-.05.498-.073.77-.07zm2.358.85c.151.03.213.214.213.56 0 .383-.201.602-.551.602-.823 0-1.005-.342-.42-.787.365-.277.606-.404.758-.375zm-20.611.383c.222.016.423.236.423.53 0 .137-.127.25-.283.25-.407 0-.673-.532-.363-.723a.368.368 0 01.223-.057zm-7.227.479c.248 0 .451.135.451.3 0 .165-.203.3-.451.3-.247 0-.45-.135-.45-.3 0-.165.203-.3.45-.3zm91.314 0a1.384 1.384 0 00-.408.103c-.254.098-.463.317-.463.488 0 .198.215.18.586-.052.497-.31.574-.552.285-.54zm-62.394.369c.059.002.127.019.205.049.261.1.599.181.75.181.152 0 .275.136.275.3 0 .166-.337.3-.75.3-.488 0-.75-.166-.75-.48 0-.238.093-.357.27-.35zm-4.13.047c1.097-.058 2.96.197 2.96.52 0 .145-.169.283-.375.306-2.421.27-3.955-.033-3.332-.657.098-.098.38-.15.746-.17zm64.171.183c-.175 0-.318.136-.318.3 0 .166.06.3.132.3.073 0 .215-.134.317-.3.102-.164.044-.3-.131-.3zm-81.564.322c.16.018.397.267.61.737h.005c.255.567.256.843 0 1.1-.361.36-.446.228-.756-1.182-.1-.458-.02-.672.14-.655zm26.152.452c.09.024.184.107.273.267h.002c.192.343.18.625-.033.838-.228.228-.375.181-.508-.164-.211-.551-.003-1.014.266-.941zm49.793.228c-.344.113-1.299 1-1.299 1.26 0 .238 1.135-.414 1.363-.783.11-.175.126-.388.041-.473-.02-.02-.056-.02-.105-.004zm-48.39.498l1.724.031c2.389.042 3.205.313 3.32 1.108.053.365-.08.72-.299.789-.844.263-1.954.344-3.322.244-1.404-.103-1.424-.12-1.424-1.139v-1.033zm9.884.092c.716.008 1.604.037 2.686.084 2.408.105 7.753.174 11.878.154 4.125-.02 7.77-.037 8.1-.037 1.993-.002 3.986.234 4.545.541.355.195 1.367.436 2.25.535 3.386.38 4.846 1.08 3.031 1.453-1.426.294-4.172.483-4.355.3-.097-.097-2.583-.233-5.524-.302-6.208-.144-17.874-.379-21.996-.443-2.964-.046-3.873-.338-3.28-1.053.182-.218.253-.524.157-.68-.255-.411.36-.575 2.508-.552zm-3.885.209c.165 0 .299.27.299.6 0 .33-.134.6-.299.6-.165 0-.3-.27-.3-.6 0-.33.135-.6.3-.6zm-7.05.6a.45.45 0 11-.002.9.45.45 0 01.001-.9zm45.599.554c.157 0 .334.145.393.322.059.178-.118.325-.393.325s-.452-.147-.393-.325c.06-.177.236-.322.393-.322zm-66.914.072c.126.007.09.15-.096.499-.175.327-.233.68-.129.785.105.104.023.19-.181.19-.494 0-.296-1.265.224-1.436a.554.554 0 01.182-.038zm-14.402.032c.126.034.304.556.365 1.299h-.002c.091 1.114-.188 1.255-1.248.63-.908-.536-.909-1.14 0-.912.637.16.752.085.752-.494 0-.389.057-.544.133-.523zm42.523.218c.201.054.261.583.115 1.36-.124.662-.37 1.064-.652 1.064-.248 0-.368-.144-.26-.318.108-.174.234-.65.28-1.059.044-.408.166-.829.271-.933.096-.096.179-.131.246-.114zm43.389.213c.82-.004.955.114.955.471 0 .47-.284.54-2.233.54-1.227 0-2.317-.137-2.42-.304-.254-.41.254-.538 2.627-.666.448-.024.797-.04 1.07-.04zm-77.487.178c.09-.007.188-.006.291.002.413.034.75.168.75.297 0 .129-.337.234-.75.234-.412 0-.75-.133-.75-.297 0-.122.19-.213.46-.236zm-4.884.467c1.723-.026 3.78.414 3.945.846.088.23.401.424.695.43.924.016-.384.81-2.21 1.341-1.626.473-2.165.857-.93.664 1.28-.2 4.125-1.226 4.125-1.488 0-.145.156-.167.347-.049.233.144.297.023.196-.365-.084-.32-.004-.713.177-.873.415-.366 2.58-.427 2.58-.072 0 .704-.974 2.03-1.49 2.03-.316 0-.667.15-.78.333-.112.182-.673.525-1.247.765-.574.24-1.2.564-1.389.721-.19.157-1.134.69-2.1 1.184-.965.494-1.864.898-1.997.898s-.178-1.08-.1-2.4c.093-1.583.032-2.399-.178-2.399-.175 0-.318.202-.318.45 0 .247-.152.449-.336.449-.181 0-.267.264-.182.59.171.653-.481 1.37-.97 1.068-.39-.241-.413-1.057-.03-1.057.27 0 .247-.337-.152-2.175-.193-.89-.3-.85 2.344-.891zm44.935.066c.16 0 .291.202.291.45 0 .247-.054.449-.119.449s-.196-.202-.291-.45c-.095-.247-.04-.449.12-.449zm32.582 0c.189 0 .42.309.516.688.224.895-.167 2.355-.557 2.076-.422-.301-.385-2.764.041-2.764zm-45.517.01c.147-.008.316.11.4.361.23.69-.561 1.156-1.412.832-.717-.272-.795-.222-.961.61-.142.71-.568 1.13-1.984 1.96-1.934 1.134-2.611 1.15-2.627.061l-.01-.685-.59.709c-.325.39-.59.897-.59 1.129 0 .39-.554 1.565-.9 1.912-.083.082-.17.66-.196 1.283-.024.623-.226 1.353-.449 1.621s-.364.738-.312 1.043h-.002c.059.35-.086.553-.395.553-.371 0-.437-.162-.273-.674.118-.371.253-1.202.3-1.846.047-.643.264-1.282.48-1.42.328-.206.328-.252 0-.256-.297-.003-.279-.12.075-.474.593-.593.596-.93.012-1.256-.253-.141-.525-.615-.604-1.053-.108-.596.017-.882.5-1.14.596-.319.63-.286.453.42-.21.84.177 1.253.909.972.375-.144.395-.267.105-.617-.29-.348-.27-.534.098-.9.254-.254.41-.73.347-1.059-.063-.328.02-.596.186-.596.164 0 .239-.102.164-.226-.306-.505.64-.815 2.05-.674 1.122.112 1.388.224 1.051.445-.5.328-.627.362-1.517.416-.371.023-.536.171-.412.371.287.465 2.17.115 2.892-.539.37-.335 1.023-.521 1.762-.502.81.022 1.176-.097 1.176-.38 0-.257.126-.392.273-.4zm-18.684.027c.136-.051.353.03.674.233.227.144.32.412.207.596-.343.555-1.072.374-1.072-.266 0-.326.055-.51.191-.563zm91.133.108c-.081.016-.131.061-.131.133 0 .144-.497.146-1.125.004-1.2-.272-2.475-.092-2.475.35 0 .146.101.251.225.232.124-.02.426-.015.674.01.347.034.324.119-.11.37-.452.264-.482.376-.15.586.637.404.904.322 1.074-.33.155-.591.514-.715 1.783-.615.777.061 1.183-.45.551-.693a.609.609 0 00-.316-.047zm-4.774.13l-4.42.116c-4.233.111-4.442.147-5.013.838-.512.62-.536.766-.162 1.053.487.373.587 1.017.156 1.017-.786 0-1.794.618-1.645 1.008.177.46 1.325.321 1.325-.16 0-.156.135-.2.3-.098.165.102.3.02.3-.181 0-.203.08-.29.177-.192.356.356-.224 1.468-.676 1.295-.503-.193-1.386.537-1.062.879.116.123-.088.132-.453.02-.555-.17-.698-.064-.862.638-.108.463-.408 1.01-.668 1.217-.388.309-.395.375-.039.379.366.004.363.054-.017.326-.362.258-.318.293.224.174.371-.082.676-.02.676.137 0 .156.172.245.383.197.21-.049.447.046.525.21.078.166-.23.314-.683.33-.454.018-.827-.083-.827-.224 0-.14-.201-.256-.449-.256-.247 0-.449.144-.449.319 0 .174-.12.244-.266.154-.323-.2.376-2.359.81-2.504.17-.056.253-.416.183-.799-.07-.383.062-.852.293-1.043.23-.19.348-.613.263-.937-.09-.349-.005-.588.213-.588.241 0 .304-.255.182-.742-.143-.567-.085-.705.244-.578.237.09.506.359.596.593.19.498.78.578.78.106 0-.177-.2-.524-.448-.772-.403-.4-.403-.501 0-.904.743-.743.238-.99-1.985-.969-1.926.018-2.134.083-2.435.744-.333.731-.079 1.423.308.838.26-.39 1.933-.371 2.217.026.12.16.118.362 0 .449-.42.31-2.422 4.441-2.24 4.623.102.102.047.186-.123.186-.547 0-1.97 2.368-2.067 3.435-.068.765.012.993.309.879.221-.085.338-.397.26-.693-.083-.315.057-.615.334-.721.26-.1.472-.396.472-.658 0-.263.125-.402.276-.309.15.093.35 0 .441-.207.092-.207.117.063.053.6-.064.537-.007.908.127.826.349-.216.65.733.441 1.39-.21.66-.985.74-1.22.126a.46.46 0 00-.59-.268c-.233.09-.347.284-.256.432.091.147.036.267-.121.267s-.528.811-.825 1.801c-.318 1.061-.706 1.799-.949 1.799-.225 0-.336-.12-.246-.266.09-.146-.138-.348-.508-.45-.55-.15-.593-.235-.23-.468.286-.184.511-.173.637.03.365.59.605-1.82.248-2.489-.312-.583-.378-.599-.627-.154-.395.706-1.631.618-2.172-.154-.446-.637-.498-.642-2.11-.194-.908.253-1.588.359-1.511.235.076-.124-.228-.317-.676-.43-.492-.123-.859-.077-.924.117-.06.178-.28.324-.494.324-.917 0-1.17.847-.785 2.635.425 1.977.895 3.608 1.232 4.291.474.958 1.504 5.283 1.782 7.473.156 1.237.361 2.723.458 3.3.097.578.243 1.48.323 2.004.108.706.36 1.023.963 1.225.449.149 1.219.169 1.713.043 2.46-.626 2.667-.749 2.918-1.715.136-.526.382-.957.546-.957.165 0 .43-.343.59-.763.16-.421.63-1.482 1.043-2.356.414-.874.752-1.69.752-1.812 0-.123.27-.567.6-.987.764-.972.754-1.17-.074-1.396l-.676-.186.748-.383c.743-.38.804-.524 2.584-6.216.57-1.825.55-1.944-.483-3-1.06-1.086-1.19-1.82-.279-1.582 1.085.283 2.674-1.063 2.809-2.38.011-.115.19-.377.396-.583.206-.207.375-.53.375-.72 0-.188.27-.656.6-1.036.33-.38.6-.874.6-1.096 0-.222.143-.404.318-.404.175 0 .235-.134.133-.299-.102-.165-.071-.3.068-.3.36 0 1.305-1.678 1.074-1.909-.105-.106-.042-.191.14-.191.183 0 .279-.283.212-.63-.107-.552-.02-.605.693-.417.448.117 1.5.26 2.342.316.842.056 1.652.123 1.8.15.15.028.63.036 1.069.016.763-.034.784-.076.455-.947l-.344-.912zm-76.447.259c.1-.002.21.014.332.044.683.171.682.175-.209.956-.96.84-1.421.546-.818-.522.184-.326.395-.475.695-.478zm-21.67.22c-.081.022-.133.075-.133.155 0 .16.202.29.45.29.247 0 .45-.052.45-.117 0-.064-.203-.196-.45-.29a.538.538 0 00-.317-.038zm96.772.082c.577.013 1.053.115 1.127.33.106.312-.064.378-.67.262-.448-.085-1.283-.049-1.856.08-.7.158-1.007.13-.935-.086.125-.376 1.37-.606 2.334-.586zm-57.274.022c.577-.048 1.163.002 1.444.176.565.349-.587 1.36-1.194 1.046-.269-.139-.732-.09-1.088.114-.34.195-.905.53-1.255.742-.537.325-.637.314-.637-.065 0-.246.208-.623.46-.835.254-.213.653-.559.887-.77.24-.216.807-.36 1.383-.408zm-4.95.19c.17.01.336.03.497.062.734.147.84.282.688.888-.124.491-.034.77.287.893.51.195.363 1.114-.301 1.908-.207.248-.538.958-.736 1.576-.2.62-.479 1.125-.621 1.125-.485 0-.599-.548-.288-1.367.172-.45.227-.899.125-1-.16-.159-.455.15-1.556 1.617-.124.165-.528.941-.897 1.725-.369.784-.823 1.424-1.007 1.424-.185 0-.256-.207-.159-.461.29-.755-.685-.882-1.343-.176-.703.754-2.051 3.359-2.235 4.316-.07.37-.332.821-.582 1.004-.25.184-.453.48-.453.659 0 .546-.512.676-.887.224-.425-.512.069-1.666.713-1.666.223 0 .48-.302.57-.674.092-.37.436-1.417.764-2.322.426-1.174.506-1.755.281-2.025-.568-.686-.65-.596-1.873 2.006-.266.568-.418 1.21-.336 1.425.083.215.003.391-.175.391-.18 0-.256.27-.17.6.086.33.013.6-.164.6-.178 0-.244.079-.147.175.2.2-.687 1.324-1.043 1.324-.406 0-.251-1.438.203-1.892.24-.24.374-.498.3-.573-.207-.206 1.013-4.76 1.4-5.226.185-.224.509-.408.718-.408.21 0 .46-.202.555-.45.095-.247.446-.45.781-.45s.61-.127.61-.282c0-.155.675-.649 1.5-1.098.825-.449 1.5-.93 1.5-1.068 0-.139.186-.252.414-.252.227 0 .581-.204.787-.451.594-.716-.146-.554-1.582.345-.698.438-1.336.885-1.418.995-.083.11-.961.655-1.951 1.21-.99.556-2.244 1.343-2.787 1.75-.693.52-1.086.648-1.307.426-.354-.353-.07-1.576.365-1.576.154 0 .281-.169.291-.375.007-.206.986-.84 2.176-1.41 1.19-.569 2.352-1.22 2.584-1.45.24-.236.755-.353 1.193-.269.56.107.961-.06 1.471-.611.694-.749 2.052-1.206 3.244-1.137zm35.095.273c.034-.01.072-.003.111.021.158.098.21.375.117.617-.238.62-.404.547-.404-.177 0-.255.073-.43.176-.461zm1.924.078c.725-.036 1.002.088 1.064.476.056.355-.113.524-.521.524-.404 0-.552.145-.442.431.091.237.015.482-.17.543-.215.072-.238.268-.066.543.409.656.422 1.183.033 1.188-.197.002-.153.13.102.295h.002c.39.253.385.293-.041.297-.575.005-.913-1.03-.662-2.028.114-.454.008-.824-.305-1.058-.694-.52-.17-1.153 1.006-1.211zm-62.606.101c.4 0 .2 1.011-.314 1.578-.462.511-.47.616-.067.924.378.289.402.594.143 1.787-.172.793-.412 1.434-.533 1.426a10.292 10.292 0 00-.555-.015c-.183 0-.25-.216-.148-.479.436-1.139.528-1.922.224-1.922-.533 0-1.466 1.188-1.648 2.098-.094.47-.412.92-.707 1-2.902.782-4.29 1.258-4.29 1.476 0 .144-.122.186-.273.092-.15-.093-.325-.016-.388.172-.07.208-.374.26-.78.13-.366-.115-.588-.335-.494-.487.382-.618.368-1.443-.025-1.594-.514-.197-.663.024-.893 1.338-.099.563-.35 1.37-.558 1.789-.385.774-.326 1.608.095 1.348.127-.079.17.174.096.562-.1.52-.286.667-.707.557-.695-.182-.726.022-.1.648h-.002c.352.352.372.47.076.467-.733-.009-.995-.439-1.052-1.72-.043-.95.055-1.276.385-1.276.341 0 .372-.128.136-.569-.223-.417-.2-.61.086-.72.215-.083.55-.871.748-1.754l.36-1.606 1.796-.529c.988-.29 1.795-.663 1.795-.826 0-.163.27-.295.6-.295.33 0 .838-.239 1.129-.53.29-.29 1.1-.716 1.799-.947.7-.23 1.271-.52 1.271-.644 0-.219 2.382-1.479 2.795-1.479zm94.483.014c-.144 0-.39.095-.684.285-.388.25-.38.291.057.295.279.003.591-.13.693-.295.117-.19.077-.285-.066-.285zm-29.26.193a.467.467 0 01.246.104c.392.325.392.66 0 1.564-.318.733-1.553.68-1.75-.076-.18-.685.86-1.672 1.504-1.592zm-40.502.106c-.341.024-.815.315-.815.588 0 .222.192.216.625-.016.345-.184.553-.407.463-.496-.062-.062-.16-.084-.273-.076zm-9.932.09c-.107-.018-.183.048-.183.18a.31.31 0 00.3.316c.165 0 .301-.058.301-.131 0-.073-.136-.216-.3-.318a.331.331 0 00-.118-.047zm-1.566.011c.107.005.183.124.183.317 0 .257-.135.469-.3.469a.292.292 0 01-.3-.284c0-.155.135-.364.3-.466a.208.208 0 01.117-.036zm46.805.903c.212-.077.844.344 1.12.861.286.534.25.59-.292.447-.341-.089-.685-.007-.762.182-.092.226-.148.208-.164-.05-.013-.217-.192-.308-.399-.204-.206.105-.16.012.102-.207.262-.218.419-.565.35-.771-.051-.151-.027-.233.044-.258zm21.023.482c.247 0 .451.12.451.268 0 .147-.204.346-.451.441-.274.105-.45 0-.45-.267 0-.243.202-.442.45-.442zm-51.844.6c.22 0 .399.203.399.45 0 .248-.179.45-.399.45-.22 0-.4-.202-.4-.45 0-.247.18-.45.4-.45zm-43.584.402c.108-.02.184.038.184.162 0 .165-.136.385-.301.487-.165.102-.299.05-.299-.116 0-.165.134-.382.299-.484a.358.358 0 01.117-.049zm1.246.211c.083-.002.137.109.137.373 0 .299.231.514.55.514.691 0 .95.251.764.736-.082.215-.45.316-.857.238-.623-.119-.726-.009-.81.868-.067.695-.268 1.035-.657 1.109-.308.058-.49-.01-.4-.152.088-.144.248-.867.355-1.606.151-1.037.669-2.072.918-2.08zm73.62.887c.34 0 .617.136.617.3 0 .166-.194.301-.432.301s-.515-.135-.617-.3c-.102-.165.092-.301.431-.301zm19.583.027c.16.044.229.184.229.424 0 .247-.13.45-.291.45-.16 0-.397.375-.525.833-.174.62-.387.805-.832.72-.85-.159-1.069-.44-.743-.956.238-.376.287-.36.287.1.004.5.046.505.485.066.264-.264.406-.667.318-.897-.088-.23.045-.495.295-.591.366-.14.617-.193.777-.149zm-16.671.473c.06-.047.167.033.351.217.234.234.335.575.223.755-.347.561-.649.363-.649-.425 0-.326.014-.5.075-.547zm-1.381.25l-.082.748c-.082.753-1.131 1.285-1.131.574 0-.205.094-.277.209-.162.115.115.387-.098.605-.475l.399-.685zm11.293.351c-.252.038-.613.25-1.053.635-.513.449-1.474 1.288-2.137 1.865-.662.578-1.271 1.22-1.351 1.426-.297.76.386.33 2.26-1.426 1.056-.99 2.09-1.8 2.298-1.8.208 0 .377-.126.377-.282 0-.318-.143-.455-.394-.418zm-85.577.541c.281.004.471.192.471.508 0 .335-.822.321-1.031-.017-.091-.148.022-.342.252-.43a.843.843 0 01.308-.06zm10.985 1.141c.201-.028.281.088.281.371 0 .37-.17.472-.6.36-.33-.087-.601-.02-.601.148 0 .174-.317.223-.74.117-.614-.154-.822-.026-1.221.744-.472.914-.47.928.176.723.479-.152.62-.099.521.197-.074.223-.378.406-.676.406-.392.001-.684.454-1.062 1.65-.287.908-.404 1.696-.26 1.75.145.056.262.295.262.532 0 .311-.211.378-.762.24-.419-.105-.73-.075-.691.069.14.533-.426 2.399-1.082 3.56-.373.66-.768 1.572-.877 2.026-.11.453-.33.824-.492.824-.162 0-.295.183-.295.406 0 .223-.338.772-.75 1.217-.868.936-.953 1.377-.264 1.377.39 0 .416.087.129.433-.197.238-.551.358-.787.268-.28-.107-.592.186-.893.842l-.46 1.008.171-1.102c.278-1.774-.363-1.613-.947.238-.456 1.448-.565 1.595-.727.983-.107-.409-.013-1.005.217-1.38.257-.418.295-.726.106-.843-.513-.317-1.196.663-1.465 2.102-.28 1.495-.631 2.127-.631 1.134 0-.34-.202-.696-.45-.79-.247-.096-.45-.313-.45-.483 0-.17.203-.309.45-.309.28 0 .45-.283.45-.75 0-.412.147-.717.326-.675.38.087 1.455-3.662 1.467-5.114.011-1.403.922-4.861 1.281-4.861.19 0 .227.638.1 1.725-.111.948-.198 2.062-.198 2.474.003.413-.202 1.32-.457 2.018-.646 1.768-.474 2.61.557 2.728.485.056.824-.05.824-.258 0-.193-.197-.276-.44-.183-.601.23-.893-.332-.448-.867.46-.555.888-.562.888-.014 0 .344.166.362.881.092.857-.324 1.137-.78 1.42-2.31.076-.41.25-.814.385-.9.225-.141 1.256-2.38 1.238-2.687-.004-.072-.207-.161-.451-.197-.374-.055-1.283 1.728-1.162 2.28.018.082-.157.322-.389.534-.353.325-.422.259-.422-.408 0-.746-.063-.782-1.049-.597-.618.116-1.05.077-1.05-.096 0-.295.916-.695 1.394-.61.744.134 1.006-.17 1.444-1.675.263-.908.603-1.649.754-1.649.148 0 .22-.271.158-.601-.064-.33.02-.6.185-.6s.224-.122.131-.273c-.093-.151-.038-.32.123-.375.161-.056.343-.43.404-.832.061-.403.42-.938.8-1.19.665-.442.679-.433.443.281a8.115 8.115 0 00-.31 1.573c-.038.458-.22 1.017-.405 1.24-.256.308-.23.447.105.576.414.159.755-.397.96-1.564.04-.228.217-.558.394-.735.176-.176.324-.665.324-1.086.002-.42.128-.96.28-1.199.167-.265.16-.644-.016-.974-.228-.427-.176-.544.246-.557 1.526-.047 2.993-.228 3.46-.426.097-.04.178-.067.245-.076zm15.543.518c.142 0 .194.337.115.75-.079.412-.25.75-.38.75-.129 0-.194-.237-.14-.526.056-.289.11-.626.124-.75.012-.124.139-.224.28-.224zm-20.59.673c.14.03.232.094.232.196 0 .144-.304.342-.675.441-.98.263-1.122.234-.957-.195.124-.325.98-.531 1.4-.442zm29.789.573c.078-.01.158.043.232.173.073.127-.042.702-.255 1.28l-.387 1.05-.024-1.107c-.016-.774.2-1.368.434-1.396zm-32.525.406c.163-.004.27.095.27.275 0 .225-.204.485-.452.58-.264.102-.45.006-.45-.234 0-.225.203-.487.45-.582a.55.55 0 01.182-.04zm30.754.021c.093-.004.15.1.23.309.256.667.249.673-.496.535-.371-.069-.504-.044-.297.055.29.137.256.381-.14 1.053-.285.48-.627.875-.762.875s-.107.26.064.58c.452.844.383 1.22-.226 1.22-.33 0-.737.436-1.053 1.125-.502 1.096-.499 1.137.121 1.649.483.398.523.525.172.525-.255 0-.548.27-.652.6-.17.534-.318.63-.913.59-.464-.031-1.523 1.669-2.671 4.285-.272.619-.624 1.125-.782 1.125-.4 0-.34-.35.174-1.031.49-.647.597-1.97.16-1.97-.154 0-.373.3-.488.663-.115.363-.395.844-.621 1.07-.226.226-.41.604-.41.84a.428.428 0 01-.426.428c-.234 0-.493.169-.576.375-.111.275-.157.28-.174.015-.013-.198.172-.469.412-.603.59-.33.11-1.062-.533-.815-.274.106-.425.312-.334.46.091.147-.111.269-.451.269s-.617-.136-.617-.3c0-.166.141-.3.316-.3.175 0 .221-.157.103-.347-.124-.201-.083-.265.098-.153.174.108.375-.137.455-.554.11-.58.017-.746-.416-.746-.307 0-.553-.101-.553-.225.006-.311.58-1.182.59-.889.003.13.29-.028.637-.351.347-.324.543-.735.434-.912-.177-.286.018-.379.627-.297.105.014.305-.155.445-.375.194-.307.258-.28.258.123.003.288-.133.525-.301.525-.169 0-.46.333-.645.74-.185.408-.443.676-.572.596-.13-.08-.212.319-.182.887.042.803.202 1.063.715 1.162.363.07.653.044.643-.055-.01-.1.072-.457.183-.795.22-.67 1.364-1.54 1.364-1.037 0 .508.822.337 1.066-.222.126-.29.208-.627.182-.75-.026-.124.116-.225.318-.225s.078-.204-.275-.451c-.354-.248-.857-.368-1.117-.268-.329.126-.47.01-.47-.375.005-.47.05-.486.296-.107.16.247.295.303.295.123.003-.18.44-.314.972-.3.679.02.997-.122 1.067-.474.074-.373-.055-.461-.506-.343-.499.13-.583.039-.477-.514.141-.732.45-1.19.45-.668 0 .207.296.244.824.101.612-.164.816-.398.787-.906-.022-.387.314-1.028.773-1.476.547-.534.794-1.068.758-1.633-.032-.506.08-.788.28-.711.31.119 1.184-.566 1.007-.79-.045-.055.143-.324.416-.597.222-.221.35-.334.444-.338zm-7.864.268c.082.003.106.03.057.08-.1.1.056.447.346.773.385.435.425.629.15.725-.206.072-.375.336-.375.588 0 .334-.195.408-.725.275-.441-.11-.772-.04-.845.178-.073.218-.2.149-.325-.176-.285-.744-.285-.745.47-.58.56.123.6.088.226-.203-.364-.283-.293-.315.375-.17.617.135.824.066.824-.275 0-.256-.263-.457-.6-.457-.79 0-.77-.484.03-.694.173-.045.31-.067.392-.064zm-1.947 1.096c.104.004.194.032.244.082.1.1-.078.169-.394.156-.35-.014-.42-.084-.18-.18a.82.82 0 01.33-.058zm10.605.615c.107.021.122.154.038.373-.1.261-.314.475-.475.475-.394 0-.148-.683.3-.832a.274.274 0 01.137-.016zm44.477.435c.273-.092.456.353.37 1.245-.113 1.148-.483 1.472-1.003.877-.228-.262-.205-.649.082-1.352.19-.464.387-.714.551-.77zm-55.732.112c.123 0 .226.337.226.75 0 .412-.103.75-.226.75-.124 0-.225.203-.225.45 0 .248.204.45.451.45.248 0 .45.204.45.451 0 .248-.144.45-.319.45-.174 0-.233-.136-.13-.301.101-.165-.02-.3-.27-.3-.282 0-.529.399-.65 1.05-.109.577-.303 1.05-.43 1.05-.335 0-.193-1.547.205-2.238.27-.468.236-.663-.16-.968-.451-.348-.433-.4.18-.573.37-.104.673-.377.673-.605 0-.228.1-.416.225-.416zm64.22 1.5c.138 0 .25.203.25.45 0 .248-.112.45-.25.45-.137 0-.25-.202-.25-.45 0-.247.113-.45.25-.45zm-85.863.601c.568 0 .53.492-.057.717-.677.26-.726.236-.533-.267.095-.248.36-.45.59-.45zm2.658.012c-.232-.06-.444-.005-.449.213-.002.124-.089.544-.193.934-.179.666-.146.686.529.334.948-.495.909-.438.693-1-.093-.244-.347-.42-.58-.481zm80.782.592c.402.003.43.063.125.258-.323.204-.309.29.074.437.261.1.474.32.474.49 0 .17-.236.307-.525.305-.449-.004-.459-.046-.074-.295.384-.248.374-.29-.074-.295-.29-.002-.526-.207-.526-.455 0-.247.237-.447.526-.445zm-58.834.596c.419 0 .429.07.074.507-.28.345-.292.435-.037.282.206-.124.375-.081.375.093 0 .175.225.317.5.317.654 0 .358.286-.46.443-.363.07-.644-.031-.644-.234-.003-.222-.127-.187-.326.092-.252.352-.283.287-.149-.301.095-.413.176-.851.176-.975.002-.124.223-.224.49-.224zm52.875.013c.15-.035.333.042.464.254.092.148-.036.347-.283.442-.272.104-.45 0-.45-.268 0-.243.119-.392.269-.428zm2.9.14c.082.022.133.075.133.155 0 .16-.202.291-.45.291-.247 0-.45-.052-.45-.117s.203-.196.45-.291a.538.538 0 01.317-.037zm-56.941 1.829c.078-.02.207-.012.373.031.33.087.601.208.601.272 0 .236-.872.103-1.033-.159-.046-.074-.02-.123.059-.144zm53.335.197c.092-.008.27.094.518.342.248.248.542.359.652.248.108-.11.11.03 0 .315h.002c-.108.283-.216.503-.24.49a13.767 13.767 0 01-.594-.625c-.403-.44-.49-.756-.338-.77zm-.015.82c.247 0 .451.202.451.45 0 .468-.356.595-.701.25s-.219-.7.25-.7zm7.53.163c.076.009.139.036.183.08.176.176-.01.353-.49.474-.425.107-.772.327-.772.489 0 .336-.404.391-.7.095-.109-.11.225-.455.741-.77.44-.266.806-.395 1.037-.368zm-4.173.142a.696.696 0 01.543.295c.23.373.127.373-.449 0-.27-.175-.308-.292-.094-.295zm-54.922.295c.065 0 .12.204.12.451 0 .248-.132.45-.291.45-.16 0-.213-.202-.118-.45.095-.247.224-.45.29-.45zm51.791.606c.29-.003.524.13.524.295 0 .365-.034.365-.6 0-.384-.249-.372-.291.076-.295zm-81.64.595c.147 0 .267.202.267.45 0 .247-.197.449-.44.449-.267 0-.372-.175-.267-.45.095-.247.292-.449.44-.449zm4.22.598a.194.194 0 01.102.055c.063.062.003.292-.133.511-.16.258-.315.29-.44.088-.16-.259.216-.706.471-.654zm77.524.158c.01-.019.025.018.043.117.105.577.194.637.432.3.22-.314.254-.231.132.314-.09.406-.015 1.326.166 2.045.227.9.232 1.402.018 1.617-.434.433-.657-.405-.78-2.924-.041-.856-.043-1.412-.011-1.469zm3.664 2.153c.25-.053.309.177.055.648-.362.669-.738 2.74-.649 3.568h.002c.04.372 0 .674-.09.674-.088 0-.162-.125-.162-.28 0-.153-.238-.355-.53-.448-.417-.132-.529-.481-.51-1.596.012-.785-.093-1.582-.233-1.774-.148-.2-.123-.43.058-.542.173-.107.315.016.315.273 0 .626.356.588 1.111-.115.262-.245.483-.377.633-.408zm1.687.359c.243-.04.76.246 1 .63.326.522.3.602-.195.602-.472 0-.935-.533-.935-1.076 0-.095.05-.143.13-.156zm-58.091 1.002c.044.033.06.182.06.455.003.371-.132.674-.297.674-.375 0-.375-.317 0-.899.118-.182.192-.264.237-.23zm55.045 1.844c-.032.031-.054.135-.06.31-.014.316.057.494.157.395.1-.1.11-.36.024-.576-.048-.12-.09-.16-.121-.13zm-84.682 3.486c.165 0 .3.202.3.45 0 .247-.135.45-.3.45-.165 0-.299-.203-.299-.45 0-.248.134-.45.299-.45z"/>
</svg>